<?xml version="1.0" encoding="utf-8" standalone="no"?>
<!DOCTYPE svg PUBLIC "-//W3C//DTD SVG 1.1//EN"
  "http://www.w3.org/Graphics/SVG/1.1/DTD/svg11.dtd">
<!-- Created with matplotlib (https://matplotlib.org/) -->
<svg height="438.07625pt" version="1.1" viewBox="0 0 438.460312 438.07625" width="438.460312pt" xmlns="http://www.w3.org/2000/svg" xmlns:xlink="http://www.w3.org/1999/xlink">
 <defs>
  <style type="text/css">
*{stroke-linecap:butt;stroke-linejoin:round;}
  </style>
 </defs>
 <g id="figure_1">
  <g id="patch_1">
   <path d="M 0 438.07625 
L 438.460312 438.07625 
L 438.460312 0 
L 0 0 
z
" style="fill:#ffffff;"/>
  </g>
  <g id="axes_1">
   <g id="patch_2">
    <path d="M 42.620313 400.52 
L 364.636312 400.52 
L 364.636312 74.626286 
L 42.620313 74.626286 
z
" style="fill:#ffffff;"/>
   </g>
   <g id="PathCollection_1">
    <path clip-path="url(#pf00fab8a34)" d="M -81.49976 545.246087 
L -76.168316 545.246087 
L -70.836872 545.246087 
L -65.505428 545.246087 
L -60.173984 545.246087 
L -54.84254 545.246087 
L -49.511096 545.246087 
L -44.179652 545.246087 
L -38.848208 545.246087 
L -33.516764 545.246087 
L -28.18532 545.246087 
L -22.853876 545.246087 
L -17.522432 545.246087 
L -12.190988 545.246087 
L -6.859544 545.246087 
L -1.5281 545.246087 
L 3.803344 545.246087 
L 9.134788 545.246087 
L 14.466232 545.246087 
L 19.797676 545.246087 
L 25.12912 545.246087 
L 30.460564 545.246087 
L 35.792008 545.246087 
L 41.123452 545.246087 
L 46.454896 545.246087 
L 51.78634 545.246087 
L 57.117784 545.246087 
L 62.449228 545.246087 
L 67.780672 545.246087 
L 73.112116 545.246087 
L 78.44356 545.246087 
L 83.775004 545.246087 
L 89.106449 545.246087 
L 94.437893 545.246087 
L 99.769337 545.246087 
L 105.100781 545.246087 
L 110.432225 545.246087 
L 115.763669 545.246087 
L 121.095113 545.246087 
L 126.426557 545.246087 
L 131.758001 545.246087 
L 137.089445 545.246087 
L 142.420889 545.246087 
L 147.752333 545.246087 
L 153.083777 545.246087 
L 158.415221 545.246087 
L 163.746665 545.246087 
L 169.078109 545.246087 
L 174.409553 545.246087 
L 179.740997 545.246087 
L 185.072441 545.246087 
L 190.403885 545.246087 
L 195.735329 545.246087 
L 201.066773 545.246087 
L 206.398217 545.246087 
L 211.729661 545.246087 
L 217.061105 545.246087 
L 222.392549 545.246087 
L 227.723993 545.246087 
L 233.055437 545.246087 
L 238.386881 545.246087 
L 243.718325 545.246087 
L 249.049769 545.246087 
L 254.381213 545.246087 
L 259.712657 545.246087 
L 265.044102 545.246087 
L 270.375546 545.246087 
L 275.70699 545.246087 
L 281.038434 545.246087 
L 286.369878 545.246087 
L 291.701322 545.246087 
L 297.032766 545.246087 
L 302.36421 545.246087 
L 307.695654 545.246087 
L 313.027098 545.246087 
L 318.358542 545.246087 
L 323.689986 545.246087 
L 329.02143 545.246087 
L 334.352874 545.246087 
L 339.684318 545.246087 
L 345.015762 545.246087 
L 350.347206 545.246087 
L 355.67865 545.246087 
L 361.010094 545.246087 
L 366.341538 545.246087 
L 371.672982 545.246087 
L 377.004426 545.246087 
L 382.33587 545.246087 
L 387.667314 545.246087 
L 392.998758 545.246087 
L 398.330202 545.246087 
L 403.661646 545.246087 
L 408.99309 545.246087 
L 414.324534 545.246087 
L 419.655978 545.246087 
L 424.987422 545.246087 
L 430.318866 545.246087 
L 435.65031 545.246087 
L 440.981754 545.246087 
L 440.981754 539.583304 
L 440.981754 533.920521 
L 440.981754 528.257737 
L 440.981754 522.594954 
L 440.981754 516.932171 
L 440.981754 511.269388 
L 440.981754 505.606604 
L 440.981754 499.943821 
L 440.981754 494.281038 
L 440.981754 488.618255 
L 440.981754 482.955472 
L 440.981754 477.292688 
L 440.981754 471.629905 
L 440.981754 465.967122 
L 440.981754 460.304339 
L 440.981754 454.641555 
L 440.981754 448.978772 
L 440.981754 443.315989 
L 440.981754 437.653206 
L 440.981754 431.990423 
L 440.981754 426.327639 
L 440.981754 420.664856 
L 440.981754 415.002073 
L 440.981754 409.33929 
L 440.981754 403.676506 
L 440.981754 398.013723 
L 440.981754 392.35094 
L 440.981754 386.688157 
L 440.981754 381.025374 
L 440.981754 375.36259 
L 440.981754 369.699807 
L 440.981754 364.037024 
L 440.981754 358.374241 
L 440.981754 352.711457 
L 440.981754 347.048674 
L 440.981754 341.385891 
L 440.981754 335.723108 
L 440.981754 330.060325 
L 440.981754 324.397541 
L 440.981754 318.734758 
L 440.981754 313.071975 
L 440.981754 307.409192 
L 440.981754 301.746408 
L 440.981754 296.083625 
L 440.981754 290.420842 
L 440.981754 284.758059 
L 440.981754 279.095276 
L 440.981754 273.432492 
L 440.981754 267.769709 
L 440.981754 262.106926 
L 440.981754 256.444143 
L 440.981754 250.781359 
L 440.981754 245.118576 
L 440.981754 239.455793 
L 440.981754 233.79301 
L 440.981754 228.130226 
L 440.981754 222.467443 
L 440.981754 216.80466 
L 440.981754 211.141877 
L 440.981754 205.479094 
L 440.981754 199.81631 
L 440.981754 194.153527 
L 440.981754 188.490744 
L 440.981754 182.827961 
L 440.981754 177.165177 
L 440.981754 171.502394 
L 440.981754 165.839611 
L 440.981754 160.176828 
L 440.981754 154.514045 
L 440.981754 148.851261 
L 440.981754 143.188478 
L 440.981754 137.525695 
L 440.981754 131.862912 
L 440.981754 126.200128 
L 440.981754 120.537345 
L 440.981754 114.874562 
L 440.981754 109.211779 
L 440.981754 103.548996 
L 440.981754 97.886212 
L 440.981754 92.223429 
L 440.981754 86.560646 
L 440.981754 80.897863 
L 440.981754 75.235079 
L 440.981754 69.572296 
L 440.981754 63.909513 
L 440.981754 58.24673 
L 440.981754 52.583947 
L 440.981754 46.921163 
L 440.981754 41.25838 
L 440.981754 35.595597 
L 440.981754 29.932814 
L 440.981754 24.27003 
L 440.981754 18.607247 
L 440.981754 12.944464 
L 440.981754 7.281681 
L 440.981754 1.618897 
L 440.981754 -4.043886 
L 440.981754 -9.706669 
L 440.981754 -15.369452 
L 435.65031 -15.369452 
L 430.318866 -15.369452 
L 424.987422 -15.369452 
L 419.655978 -15.369452 
L 414.324534 -15.369452 
L 408.99309 -15.369452 
L 403.661646 -15.369452 
L 398.330202 -15.369452 
L 392.998758 -15.369452 
L 387.667314 -15.369452 
L 382.33587 -15.369452 
L 377.004426 -15.369452 
L 371.672982 -15.369452 
L 366.341538 -15.369452 
L 361.010094 -15.369452 
L 355.67865 -15.369452 
L 350.347206 -15.369452 
L 345.015762 -15.369452 
L 339.684318 -15.369452 
L 334.352874 -15.369452 
L 329.02143 -15.369452 
L 323.689986 -15.369452 
L 318.358542 -15.369452 
L 313.027098 -15.369452 
L 307.695654 -15.369452 
L 302.36421 -15.369452 
L 297.032766 -15.369452 
L 291.701322 -15.369452 
L 286.369878 -15.369452 
L 281.038434 -15.369452 
L 275.70699 -15.369452 
L 270.375546 -15.369452 
L 265.044102 -15.369452 
L 259.712657 -15.369452 
L 254.381213 -15.369452 
L 249.049769 -15.369452 
L 243.718325 -15.369452 
L 238.386881 -15.369452 
L 233.055437 -15.369452 
L 227.723993 -15.369452 
L 222.392549 -15.369452 
L 217.061105 -15.369452 
L 211.729661 -15.369452 
L 206.398217 -15.369452 
L 201.066773 -15.369452 
L 195.735329 -15.369452 
L 190.403885 -15.369452 
L 185.072441 -15.369452 
L 179.740997 -15.369452 
L 174.409553 -15.369452 
L 169.078109 -15.369452 
L 163.746665 -15.369452 
L 158.415221 -15.369452 
L 153.083777 -15.369452 
L 147.752333 -15.369452 
L 142.420889 -15.369452 
L 137.089445 -15.369452 
L 131.758001 -15.369452 
L 126.426557 -15.369452 
L 121.095113 -15.369452 
L 115.763669 -15.369452 
L 110.432225 -15.369452 
L 105.100781 -15.369452 
L 99.769337 -15.369452 
L 94.437893 -15.369452 
L 89.106449 -15.369452 
L 83.775004 -15.369452 
L 78.44356 -15.369452 
L 73.112116 -15.369452 
L 67.780672 -15.369452 
L 62.449228 -15.369452 
L 57.117784 -15.369452 
L 51.78634 -15.369452 
L 46.454896 -15.369452 
L 41.123452 -15.369452 
L 35.792008 -15.369452 
L 30.460564 -15.369452 
L 25.12912 -15.369452 
L 19.797676 -15.369452 
L 14.466232 -15.369452 
L 9.134788 -15.369452 
L 3.803344 -15.369452 
L -1.5281 -15.369452 
L -6.859544 -15.369452 
L -12.190988 -15.369452 
L -17.522432 -15.369452 
L -22.853876 -15.369452 
L -28.18532 -15.369452 
L -33.516764 -15.369452 
L -38.848208 -15.369452 
L -44.179652 -15.369452 
L -49.511096 -15.369452 
L -54.84254 -15.369452 
L -60.173984 -15.369452 
L -65.505428 -15.369452 
L -70.836872 -15.369452 
L -76.168316 -15.369452 
L -81.49976 -15.369452 
L -86.831204 -15.369452 
L -86.831204 -9.706669 
L -86.831204 -4.043886 
L -86.831204 1.618897 
L -86.831204 7.281681 
L -86.831204 12.944464 
L -86.831204 18.607247 
L -86.831204 24.27003 
L -86.831204 29.932814 
L -86.831204 35.595597 
L -86.831204 41.25838 
L -86.831204 46.921163 
L -86.831204 52.583947 
L -86.831204 58.24673 
L -86.831204 63.909513 
L -86.831204 69.572296 
L -86.831204 75.235079 
L -86.831204 80.897863 
L -86.831204 86.560646 
L -86.831204 92.223429 
L -86.831204 97.886212 
L -86.831204 103.548996 
L -86.831204 109.211779 
L -86.831204 114.874562 
L -86.831204 120.537345 
L -86.831204 126.200128 
L -86.831204 131.862912 
L -86.831204 137.525695 
L -86.831204 143.188478 
L -86.831204 148.851261 
L -86.831204 154.514045 
L -86.831204 160.176828 
L -86.831204 165.839611 
L -86.831204 171.502394 
L -86.831204 177.165177 
L -86.831204 182.827961 
L -86.831204 188.490744 
L -86.831204 194.153527 
L -86.831204 199.81631 
L -86.831204 205.479094 
L -86.831204 211.141877 
L -86.831204 216.80466 
L -86.831204 222.467443 
L -86.831204 228.130226 
L -86.831204 233.79301 
L -86.831204 239.455793 
L -86.831204 245.118576 
L -86.831204 250.781359 
L -86.831204 256.444143 
L -86.831204 262.106926 
L -86.831204 267.769709 
L -86.831204 273.432492 
L -86.831204 279.095276 
L -86.831204 284.758059 
L -86.831204 290.420842 
L -86.831204 296.083625 
L -86.831204 301.746408 
L -86.831204 307.409192 
L -86.831204 313.071975 
L -86.831204 318.734758 
L -86.831204 324.397541 
L -86.831204 330.060325 
L -86.831204 335.723108 
L -86.831204 341.385891 
L -86.831204 347.048674 
L -86.831204 352.711457 
L -86.831204 358.374241 
L -86.831204 364.037024 
L -86.831204 369.699807 
L -86.831204 375.36259 
L -86.831204 381.025374 
L -86.831204 386.688157 
L -86.831204 392.35094 
L -86.831204 398.013723 
L -86.831204 403.676506 
L -86.831204 409.33929 
L -86.831204 415.002073 
L -86.831204 420.664856 
L -86.831204 426.327639 
L -86.831204 431.990423 
L -86.831204 437.653206 
L -86.831204 443.315989 
L -86.831204 448.978772 
L -86.831204 454.641555 
L -86.831204 460.304339 
L -86.831204 465.967122 
L -86.831204 471.629905 
L -86.831204 477.292688 
L -86.831204 482.955472 
L -86.831204 488.618255 
L -86.831204 494.281038 
L -86.831204 499.943821 
L -86.831204 505.606604 
L -86.831204 511.269388 
L -86.831204 516.932171 
L -86.831204 522.594954 
L -86.831204 528.257737 
L -86.831204 533.920521 
L -86.831204 539.583304 
L -86.831204 545.246087 
z
M 104.184135 358.374241 
L 101.143945 352.711457 
L 99.770207 347.048674 
L 99.769337 347.047312 
L 94.437893 341.85649 
L 93.947736 341.385891 
L 89.18964 335.723108 
L 89.106449 335.605574 
L 85.319405 330.060325 
L 83.775004 325.181288 
L 83.598693 324.397541 
L 83.775004 323.86999 
L 85.474514 318.734758 
L 87.193074 313.071975 
L 87.934683 307.409192 
L 88.690337 301.746408 
L 89.106449 300.527962 
L 90.506169 296.083625 
L 92.910333 290.420842 
L 94.437893 286.845534 
L 95.147925 284.758059 
L 96.977263 279.095276 
L 98.926521 273.432492 
L 99.769337 271.709112 
L 101.935967 267.769709 
L 105.100781 263.135699 
L 105.826899 262.106926 
L 109.393937 256.444143 
L 110.432225 254.820199 
L 112.556536 250.781359 
L 115.763669 245.449713 
L 115.953935 245.118576 
L 118.80337 239.455793 
L 121.095113 235.980703 
L 122.227968 233.79301 
L 125.701615 228.130226 
L 126.426557 227.11029 
L 129.902806 222.467443 
L 131.758001 220.070525 
L 134.008552 216.80466 
L 137.089445 212.416133 
L 137.966725 211.141877 
L 142.420889 205.536053 
L 142.464839 205.479094 
L 147.098977 199.81631 
L 147.752333 199.080259 
L 152.266242 194.153527 
L 153.083777 193.276746 
L 158.415221 188.729593 
L 158.742383 188.490744 
L 163.746665 184.412934 
L 165.310911 182.827961 
L 169.078109 178.623281 
L 170.35231 177.165177 
L 174.409553 172.557696 
L 175.597613 171.502394 
L 179.740997 168.216922 
L 183.380207 165.839611 
L 185.072441 164.71214 
L 190.403885 160.375956 
L 190.598374 160.176828 
L 195.401452 154.514045 
L 195.735329 154.071784 
L 200.954633 148.851261 
L 201.066773 148.74185 
L 206.398217 144.480746 
L 208.421412 143.188478 
L 211.729661 141.452244 
L 217.061105 139.047958 
L 220.128964 137.525695 
L 222.392549 136.024665 
L 227.318151 131.862912 
L 227.723993 131.477946 
L 233.055437 127.618244 
L 236.884449 126.200128 
L 238.386881 125.472599 
L 243.718325 124.278664 
L 249.049769 122.846606 
L 253.337502 120.537345 
L 254.381213 119.957651 
L 259.712657 117.538047 
L 265.044102 116.692647 
L 270.375546 115.716155 
L 272.6516 114.874562 
L 275.70699 113.452618 
L 281.038434 111.909148 
L 286.369878 111.204649 
L 291.701322 111.121196 
L 297.032766 112.796669 
L 300.099728 114.874562 
L 302.36421 116.480827 
L 307.562698 120.537345 
L 307.695654 120.66775 
L 312.642833 126.200128 
L 313.027098 126.91733 
L 315.552991 131.862912 
L 317.451118 137.525695 
L 318.358542 141.01089 
L 318.869056 143.188478 
L 320.323277 148.851261 
L 321.588623 154.514045 
L 322.055768 160.176828 
L 321.091619 165.839611 
L 319.467048 171.502394 
L 318.358542 175.269078 
L 317.727219 177.165177 
L 315.152605 182.827961 
L 313.027098 186.756943 
L 312.233469 188.490744 
L 310.091218 194.153527 
L 308.577883 199.81631 
L 307.695654 202.547196 
L 306.756269 205.479094 
L 304.586123 211.141877 
L 302.36421 215.574866 
L 301.686427 216.80466 
L 297.383759 222.467443 
L 297.032766 222.885814 
L 293.007613 228.130226 
L 291.701322 230.031771 
L 289.64973 233.79301 
L 286.499279 239.455793 
L 286.369878 239.634957 
L 281.973995 245.118576 
L 281.038434 246.239447 
L 277.701057 250.781359 
L 275.70699 254.28805 
L 274.600177 256.444143 
L 271.315356 262.106926 
L 270.375546 263.326348 
L 267.020907 267.769709 
L 265.044102 269.91954 
L 261.242156 273.432492 
L 259.712657 274.807863 
L 255.415065 279.095276 
L 254.381213 280.232812 
L 249.303231 284.758059 
L 249.049769 284.994378 
L 243.718325 290.311175 
L 243.627416 290.420842 
L 240.067099 296.083625 
L 238.386881 298.410773 
L 235.939239 301.746408 
L 233.055437 304.666879 
L 227.904551 307.409192 
L 227.723993 307.52103 
L 222.392549 311.032248 
L 219.943948 313.071975 
L 217.061105 315.994561 
L 213.763886 318.734758 
L 211.729661 320.28634 
L 206.398217 324.108964 
L 205.933003 324.397541 
L 201.066773 328.227043 
L 198.205948 330.060325 
L 195.735329 331.973921 
L 190.403885 335.327081 
L 189.726866 335.723108 
L 185.072441 338.94545 
L 181.181614 341.385891 
L 179.740997 342.332199 
L 174.409553 345.169633 
L 170.154903 347.048674 
L 169.078109 347.759041 
L 163.746665 350.708538 
L 158.415221 352.503361 
L 157.678185 352.711457 
L 153.083777 354.325282 
L 147.752333 356.300358 
L 144.191852 358.374241 
L 142.420889 359.588558 
L 137.089445 361.986332 
L 131.758001 362.4735 
L 126.426557 362.034505 
L 121.095113 362.0633 
L 115.763669 362.835114 
L 110.432225 361.587546 
L 105.100781 358.983197 
z
" style="fill:#fdefeb;"/>
   </g>
   <g id="PathCollection_2">
    <path clip-path="url(#pf00fab8a34)" d="M 105.100781 358.983197 
L 110.432225 361.587546 
L 115.763669 362.835114 
L 121.095113 362.0633 
L 126.426557 362.034505 
L 131.758001 362.4735 
L 137.089445 361.986332 
L 142.420889 359.588558 
L 144.191852 358.374241 
L 147.752333 356.300358 
L 153.083777 354.325282 
L 157.678185 352.711457 
L 158.415221 352.503361 
L 163.746665 350.708538 
L 169.078109 347.759041 
L 170.154903 347.048674 
L 174.409553 345.169633 
L 179.740997 342.332199 
L 181.181614 341.385891 
L 185.072441 338.94545 
L 189.726866 335.723108 
L 190.403885 335.327081 
L 195.735329 331.973921 
L 198.205948 330.060325 
L 201.066773 328.227043 
L 205.933003 324.397541 
L 206.398217 324.108964 
L 211.729661 320.28634 
L 213.763886 318.734758 
L 217.061105 315.994561 
L 219.943948 313.071975 
L 222.392549 311.032248 
L 227.723993 307.52103 
L 227.904551 307.409192 
L 233.055437 304.666879 
L 235.939239 301.746408 
L 238.386881 298.410773 
L 240.067099 296.083625 
L 243.627416 290.420842 
L 243.718325 290.311175 
L 249.049769 284.994378 
L 249.303231 284.758059 
L 254.381213 280.232812 
L 255.415065 279.095276 
L 259.712657 274.807863 
L 261.242156 273.432492 
L 265.044102 269.91954 
L 267.020907 267.769709 
L 270.375546 263.326348 
L 271.315356 262.106926 
L 274.600177 256.444143 
L 275.70699 254.28805 
L 277.701057 250.781359 
L 281.038434 246.239447 
L 281.973995 245.118576 
L 286.369878 239.634957 
L 286.499279 239.455793 
L 289.64973 233.79301 
L 291.701322 230.031771 
L 293.007613 228.130226 
L 297.032766 222.885814 
L 297.383759 222.467443 
L 301.686427 216.80466 
L 302.36421 215.574866 
L 304.586123 211.141877 
L 306.756269 205.479094 
L 307.695654 202.547196 
L 308.577883 199.81631 
L 310.091218 194.153527 
L 312.233469 188.490744 
L 313.027098 186.756943 
L 315.152605 182.827961 
L 317.727219 177.165177 
L 318.358542 175.269078 
L 319.467048 171.502394 
L 321.091619 165.839611 
L 322.055768 160.176828 
L 321.588623 154.514045 
L 320.323277 148.851261 
L 318.869056 143.188478 
L 318.358542 141.01089 
L 317.451118 137.525695 
L 315.552991 131.862912 
L 313.027098 126.91733 
L 312.642833 126.200128 
L 307.695654 120.66775 
L 307.562698 120.537345 
L 302.36421 116.480827 
L 300.099728 114.874562 
L 297.032766 112.796669 
L 291.701322 111.121196 
L 286.369878 111.204649 
L 281.038434 111.909148 
L 275.70699 113.452618 
L 272.6516 114.874562 
L 270.375546 115.716155 
L 265.044102 116.692647 
L 259.712657 117.538047 
L 254.381213 119.957651 
L 253.337502 120.537345 
L 249.049769 122.846606 
L 243.718325 124.278664 
L 238.386881 125.472599 
L 236.884449 126.200128 
L 233.055437 127.618244 
L 227.723993 131.477946 
L 227.318151 131.862912 
L 222.392549 136.024665 
L 220.128964 137.525695 
L 217.061105 139.047958 
L 211.729661 141.452244 
L 208.421412 143.188478 
L 206.398217 144.480746 
L 201.066773 148.74185 
L 200.954633 148.851261 
L 195.735329 154.071784 
L 195.401452 154.514045 
L 190.598374 160.176828 
L 190.403885 160.375956 
L 185.072441 164.71214 
L 183.380207 165.839611 
L 179.740997 168.216922 
L 175.597613 171.502394 
L 174.409553 172.557696 
L 170.35231 177.165177 
L 169.078109 178.623281 
L 165.310911 182.827961 
L 163.746665 184.412934 
L 158.742383 188.490744 
L 158.415221 188.729593 
L 153.083777 193.276746 
L 152.266242 194.153527 
L 147.752333 199.080259 
L 147.098977 199.81631 
L 142.464839 205.479094 
L 142.420889 205.536053 
L 137.966725 211.141877 
L 137.089445 212.416133 
L 134.008552 216.80466 
L 131.758001 220.070525 
L 129.902806 222.467443 
L 126.426557 227.11029 
L 125.701615 228.130226 
L 122.227968 233.79301 
L 121.095113 235.980703 
L 118.80337 239.455793 
L 115.953935 245.118576 
L 115.763669 245.449713 
L 112.556536 250.781359 
L 110.432225 254.820199 
L 109.393937 256.444143 
L 105.826899 262.106926 
L 105.100781 263.135699 
L 101.935967 267.769709 
L 99.769337 271.709112 
L 98.926521 273.432492 
L 96.977263 279.095276 
L 95.147925 284.758059 
L 94.437893 286.845534 
L 92.910333 290.420842 
L 90.506169 296.083625 
L 89.106449 300.527962 
L 88.690337 301.746408 
L 87.934683 307.409192 
L 87.193074 313.071975 
L 85.474514 318.734758 
L 83.775004 323.86999 
L 83.598693 324.397541 
L 83.775004 325.181288 
L 85.319405 330.060325 
L 89.106449 335.605574 
L 89.18964 335.723108 
L 93.947736 341.385891 
L 94.437893 341.85649 
L 99.769337 347.047312 
L 99.770207 347.048674 
L 101.143945 352.711457 
L 104.184135 358.374241 
z
M 130.950579 341.385891 
L 126.426557 340.306714 
L 121.095113 338.444233 
L 115.84141 335.723108 
L 115.763669 335.670868 
L 110.622697 330.060325 
L 110.432225 329.750136 
L 107.476616 324.397541 
L 106.085956 318.734758 
L 105.226663 313.071975 
L 105.182432 307.409192 
L 105.965226 301.746408 
L 107.094751 296.083625 
L 108.638598 290.420842 
L 110.413459 284.758059 
L 110.432225 284.704006 
L 111.985502 279.095276 
L 114.28795 273.432492 
L 115.763669 270.786447 
L 117.005501 267.769709 
L 119.682382 262.106926 
L 121.095113 259.572525 
L 122.757932 256.444143 
L 126.426557 251.149599 
L 126.659389 250.781359 
L 129.779761 245.118576 
L 131.758001 240.817823 
L 132.318931 239.455793 
L 135.607582 233.79301 
L 137.089445 232.079214 
L 140.572751 228.130226 
L 142.420889 225.783167 
L 144.7755 222.467443 
L 147.752333 217.76795 
L 148.359319 216.80466 
L 152.234098 211.141877 
L 153.083777 210.094281 
L 157.020475 205.479094 
L 158.415221 204.056416 
L 162.765195 199.81631 
L 163.746665 198.937025 
L 169.078109 194.231661 
L 169.163634 194.153527 
L 174.409553 188.840795 
L 174.753 188.490744 
L 179.73061 182.827961 
L 179.740997 182.817607 
L 185.072441 178.040156 
L 186.117481 177.165177 
L 190.403885 173.562097 
L 192.839441 171.502394 
L 195.735329 168.655912 
L 198.480882 165.839611 
L 201.066773 163.318858 
L 205.71681 160.176828 
L 206.398217 159.736498 
L 211.729661 156.427974 
L 214.172529 154.514045 
L 217.061105 152.100389 
L 221.859696 148.851261 
L 222.392549 148.522989 
L 227.723993 145.474969 
L 231.414551 143.188478 
L 233.055437 142.137209 
L 238.386881 140.406148 
L 243.718325 139.674623 
L 249.049769 138.796343 
L 252.034716 137.525695 
L 254.381213 136.409921 
L 259.712657 133.150698 
L 263.108682 131.862912 
L 265.044102 131.215428 
L 270.375546 130.938876 
L 275.493564 131.862912 
L 275.70699 131.9169 
L 281.038434 133.753784 
L 286.369878 135.603046 
L 289.705899 137.525695 
L 291.701322 138.553511 
L 296.406919 143.188478 
L 297.032766 144.152103 
L 299.805154 148.851261 
L 302.154981 154.514045 
L 302.36421 156.390525 
L 302.695842 160.176828 
L 302.36421 161.503444 
L 301.516741 165.839611 
L 299.857472 171.502394 
L 298.594713 177.165177 
L 297.694849 182.827961 
L 297.032766 185.703931 
L 296.455291 188.490744 
L 294.745068 194.153527 
L 292.361312 199.81631 
L 291.701322 201.136395 
L 290.050899 205.479094 
L 287.690125 211.141877 
L 286.369878 214.173743 
L 285.377436 216.80466 
L 282.381425 222.467443 
L 281.038434 224.891325 
L 279.436126 228.130226 
L 276.479642 233.79301 
L 275.70699 234.880937 
L 272.467614 239.455793 
L 270.375546 242.22348 
L 268.504194 245.118576 
L 265.224393 250.781359 
L 265.044102 251.098152 
L 261.790127 256.444143 
L 259.712657 259.035822 
L 257.059082 262.106926 
L 254.381213 265.055869 
L 252.14605 267.769709 
L 249.049769 271.325232 
L 247.053823 273.432492 
L 243.718325 276.630947 
L 241.368392 279.095276 
L 238.386881 282.210506 
L 235.924847 284.758059 
L 233.055437 288.130772 
L 230.711366 290.420842 
L 227.723993 293.761692 
L 225.343452 296.083625 
L 222.392549 298.109651 
L 217.291485 301.746408 
L 217.061105 301.909079 
L 211.729661 305.860886 
L 209.605551 307.409192 
L 206.398217 310.29201 
L 203.082102 313.071975 
L 201.066773 314.636215 
L 195.735329 317.65903 
L 193.835193 318.734758 
L 190.403885 320.994396 
L 185.774608 324.397541 
L 185.072441 324.901941 
L 179.740997 328.125147 
L 174.409553 330.049335 
L 174.369236 330.060325 
L 169.078109 332.009786 
L 163.746665 334.645295 
L 161.770513 335.723108 
L 158.415221 337.537475 
L 153.083777 339.567452 
L 147.752333 340.880052 
L 144.182051 341.385891 
L 142.420889 341.647163 
L 137.089445 342.019984 
L 131.758001 341.65085 
z
" style="fill:#f7cec3;"/>
   </g>
   <g id="PathCollection_3">
    <path clip-path="url(#pf00fab8a34)" d="M 131.758001 341.65085 
L 137.089445 342.019984 
L 142.420889 341.647163 
L 144.182051 341.385891 
L 147.752333 340.880052 
L 153.083777 339.567452 
L 158.415221 337.537475 
L 161.770513 335.723108 
L 163.746665 334.645295 
L 169.078109 332.009786 
L 174.369236 330.060325 
L 174.409553 330.049335 
L 179.740997 328.125147 
L 185.072441 324.901941 
L 185.774608 324.397541 
L 190.403885 320.994396 
L 193.835193 318.734758 
L 195.735329 317.65903 
L 201.066773 314.636215 
L 203.082102 313.071975 
L 206.398217 310.29201 
L 209.605551 307.409192 
L 211.729661 305.860886 
L 217.061105 301.909079 
L 217.291485 301.746408 
L 222.392549 298.109651 
L 225.343452 296.083625 
L 227.723993 293.761692 
L 230.711366 290.420842 
L 233.055437 288.130772 
L 235.924847 284.758059 
L 238.386881 282.210506 
L 241.368392 279.095276 
L 243.718325 276.630947 
L 247.053823 273.432492 
L 249.049769 271.325232 
L 252.14605 267.769709 
L 254.381213 265.055869 
L 257.059082 262.106926 
L 259.712657 259.035822 
L 261.790127 256.444143 
L 265.044102 251.098152 
L 265.224393 250.781359 
L 268.504194 245.118576 
L 270.375546 242.22348 
L 272.467614 239.455793 
L 275.70699 234.880937 
L 276.479642 233.79301 
L 279.436126 228.130226 
L 281.038434 224.891325 
L 282.381425 222.467443 
L 285.377436 216.80466 
L 286.369878 214.173743 
L 287.690125 211.141877 
L 290.050899 205.479094 
L 291.701322 201.136395 
L 292.361312 199.81631 
L 294.745068 194.153527 
L 296.455291 188.490744 
L 297.032766 185.703931 
L 297.694849 182.827961 
L 298.594713 177.165177 
L 299.857472 171.502394 
L 301.516741 165.839611 
L 302.36421 161.503444 
L 302.695842 160.176828 
L 302.36421 156.390525 
L 302.154981 154.514045 
L 299.805154 148.851261 
L 297.032766 144.152103 
L 296.406919 143.188478 
L 291.701322 138.553511 
L 289.705899 137.525695 
L 286.369878 135.603046 
L 281.038434 133.753784 
L 275.70699 131.9169 
L 275.493564 131.862912 
L 270.375546 130.938876 
L 265.044102 131.215428 
L 263.108682 131.862912 
L 259.712657 133.150698 
L 254.381213 136.409921 
L 252.034716 137.525695 
L 249.049769 138.796343 
L 243.718325 139.674623 
L 238.386881 140.406148 
L 233.055437 142.137209 
L 231.414551 143.188478 
L 227.723993 145.474969 
L 222.392549 148.522989 
L 221.859696 148.851261 
L 217.061105 152.100389 
L 214.172529 154.514045 
L 211.729661 156.427974 
L 206.398217 159.736498 
L 205.71681 160.176828 
L 201.066773 163.318858 
L 198.480882 165.839611 
L 195.735329 168.655912 
L 192.839441 171.502394 
L 190.403885 173.562097 
L 186.117481 177.165177 
L 185.072441 178.040156 
L 179.740997 182.817607 
L 179.73061 182.827961 
L 174.753 188.490744 
L 174.409553 188.840795 
L 169.163634 194.153527 
L 169.078109 194.231661 
L 163.746665 198.937025 
L 162.765195 199.81631 
L 158.415221 204.056416 
L 157.020475 205.479094 
L 153.083777 210.094281 
L 152.234098 211.141877 
L 148.359319 216.80466 
L 147.752333 217.76795 
L 144.7755 222.467443 
L 142.420889 225.783167 
L 140.572751 228.130226 
L 137.089445 232.079214 
L 135.607582 233.79301 
L 132.318931 239.455793 
L 131.758001 240.817823 
L 129.779761 245.118576 
L 126.659389 250.781359 
L 126.426557 251.149599 
L 122.757932 256.444143 
L 121.095113 259.572525 
L 119.682382 262.106926 
L 117.005501 267.769709 
L 115.763669 270.786447 
L 114.28795 273.432492 
L 111.985502 279.095276 
L 110.432225 284.704006 
L 110.413459 284.758059 
L 108.638598 290.420842 
L 107.094751 296.083625 
L 105.965226 301.746408 
L 105.182432 307.409192 
L 105.226663 313.071975 
L 106.085956 318.734758 
L 107.476616 324.397541 
L 110.432225 329.750136 
L 110.622697 330.060325 
L 115.763669 335.670868 
L 115.84141 335.723108 
L 121.095113 338.444233 
L 126.426557 340.306714 
L 130.950579 341.385891 
z
M 129.280532 330.060325 
L 126.426557 327.679063 
L 123.73695 324.397541 
L 121.245727 318.734758 
L 121.095113 318.412878 
L 119.125919 313.071975 
L 117.665425 307.409192 
L 117.690136 301.746408 
L 118.966646 296.083625 
L 119.895275 290.420842 
L 120.667321 284.758059 
L 121.095113 283.064175 
L 122.028532 279.095276 
L 123.667323 273.432492 
L 125.611002 267.769709 
L 126.426557 266.00422 
L 128.156992 262.106926 
L 131.44398 256.444143 
L 131.758001 255.972264 
L 135.111375 250.781359 
L 137.089445 247.38077 
L 138.307471 245.118576 
L 141.259605 239.455793 
L 142.420889 237.849255 
L 145.569271 233.79301 
L 147.752333 231.148438 
L 149.950497 228.130226 
L 153.083777 223.89024 
L 154.240555 222.467443 
L 158.415221 217.221327 
L 158.722165 216.80466 
L 162.873481 211.141877 
L 163.746665 210.162472 
L 167.921127 205.479094 
L 169.078109 204.304474 
L 173.515446 199.81631 
L 174.409553 198.98137 
L 179.740997 194.442397 
L 180.06365 194.153527 
L 185.072441 188.823708 
L 185.36188 188.490744 
L 190.403885 183.305525 
L 190.929137 182.827961 
L 195.735329 178.797746 
L 197.660899 177.165177 
L 201.066773 174.038139 
L 203.977798 171.502394 
L 206.398217 169.396553 
L 211.729661 166.233031 
L 212.481014 165.839611 
L 217.061105 162.802738 
L 221.339931 160.176828 
L 222.392549 159.426976 
L 227.723993 157.07354 
L 233.055437 155.047373 
L 234.415259 154.514045 
L 238.386881 152.666625 
L 243.718325 151.238017 
L 249.049769 150.659047 
L 254.381213 149.624762 
L 256.846644 148.851261 
L 259.712657 147.736783 
L 265.044102 146.059155 
L 270.375546 147.265255 
L 271.831381 148.851261 
L 275.70699 153.31563 
L 277.105254 154.514045 
L 281.038434 158.532098 
L 282.560022 160.176828 
L 285.46102 165.839611 
L 286.369878 168.836944 
L 287.003516 171.502394 
L 287.453321 177.165177 
L 287.14927 182.827961 
L 286.562102 188.490744 
L 286.369878 189.487949 
L 285.596017 194.153527 
L 283.742953 199.81631 
L 281.423084 205.479094 
L 281.038434 206.383638 
L 278.985751 211.141877 
L 275.751906 216.80466 
L 275.70699 216.87833 
L 272.540413 222.467443 
L 270.375546 227.078518 
L 269.939599 228.130226 
L 266.763508 233.79301 
L 265.044102 236.171684 
L 262.987275 239.455793 
L 259.862065 245.118576 
L 259.712657 245.373026 
L 256.631853 250.781359 
L 254.381213 253.724693 
L 252.220572 256.444143 
L 249.049769 260.117022 
L 247.039562 262.106926 
L 243.718325 265.50128 
L 241.135491 267.769709 
L 238.386881 270.65569 
L 236.121207 273.432492 
L 233.055437 276.869903 
L 231.063375 279.095276 
L 227.723993 282.199347 
L 224.725606 284.758059 
L 222.392549 287.012765 
L 219.31844 290.420842 
L 217.061105 292.812682 
L 213.584126 296.083625 
L 211.729661 297.491863 
L 206.398217 301.03993 
L 205.240219 301.746408 
L 201.066773 304.90532 
L 196.906356 307.409192 
L 195.735329 308.18327 
L 190.403885 310.994647 
L 186.892134 313.071975 
L 185.072441 314.375658 
L 179.740997 318.587158 
L 179.506384 318.734758 
L 174.409553 321.443698 
L 169.078109 322.75053 
L 163.746665 323.8014 
L 161.16249 324.397541 
L 158.415221 325.265653 
L 153.083777 326.421605 
L 147.752333 326.960854 
L 142.420889 328.328534 
L 138.705721 330.060325 
L 137.089445 330.684083 
L 131.758001 331.117263 
z
" style="fill:#f2ab98;"/>
   </g>
   <g id="PathCollection_4">
    <path clip-path="url(#pf00fab8a34)" d="M 131.758001 331.117263 
L 137.089445 330.684083 
L 138.705721 330.060325 
L 142.420889 328.328534 
L 147.752333 326.960854 
L 153.083777 326.421605 
L 158.415221 325.265653 
L 161.16249 324.397541 
L 163.746665 323.8014 
L 169.078109 322.75053 
L 174.409553 321.443698 
L 179.506384 318.734758 
L 179.740997 318.587158 
L 185.072441 314.375658 
L 186.892134 313.071975 
L 190.403885 310.994647 
L 195.735329 308.18327 
L 196.906356 307.409192 
L 201.066773 304.90532 
L 205.240219 301.746408 
L 206.398217 301.03993 
L 211.729661 297.491863 
L 213.584126 296.083625 
L 217.061105 292.812682 
L 219.31844 290.420842 
L 222.392549 287.012765 
L 224.725606 284.758059 
L 227.723993 282.199347 
L 231.063375 279.095276 
L 233.055437 276.869903 
L 236.121207 273.432492 
L 238.386881 270.65569 
L 241.135491 267.769709 
L 243.718325 265.50128 
L 247.039562 262.106926 
L 249.049769 260.117022 
L 252.220572 256.444143 
L 254.381213 253.724693 
L 256.631853 250.781359 
L 259.712657 245.373026 
L 259.862065 245.118576 
L 262.987275 239.455793 
L 265.044102 236.171684 
L 266.763508 233.79301 
L 269.939599 228.130226 
L 270.375546 227.078518 
L 272.540413 222.467443 
L 275.70699 216.87833 
L 275.751906 216.80466 
L 278.985751 211.141877 
L 281.038434 206.383638 
L 281.423084 205.479094 
L 283.742953 199.81631 
L 285.596017 194.153527 
L 286.369878 189.487949 
L 286.562102 188.490744 
L 287.14927 182.827961 
L 287.453321 177.165177 
L 287.003516 171.502394 
L 286.369878 168.836944 
L 285.46102 165.839611 
L 282.560022 160.176828 
L 281.038434 158.532098 
L 277.105254 154.514045 
L 275.70699 153.31563 
L 271.831381 148.851261 
L 270.375546 147.265255 
L 265.044102 146.059155 
L 259.712657 147.736783 
L 256.846644 148.851261 
L 254.381213 149.624762 
L 249.049769 150.659047 
L 243.718325 151.238017 
L 238.386881 152.666625 
L 234.415259 154.514045 
L 233.055437 155.047373 
L 227.723993 157.07354 
L 222.392549 159.426976 
L 221.339931 160.176828 
L 217.061105 162.802738 
L 212.481014 165.839611 
L 211.729661 166.233031 
L 206.398217 169.396553 
L 203.977798 171.502394 
L 201.066773 174.038139 
L 197.660899 177.165177 
L 195.735329 178.797746 
L 190.929137 182.827961 
L 190.403885 183.305525 
L 185.36188 188.490744 
L 185.072441 188.823708 
L 180.06365 194.153527 
L 179.740997 194.442397 
L 174.409553 198.98137 
L 173.515446 199.81631 
L 169.078109 204.304474 
L 167.921127 205.479094 
L 163.746665 210.162472 
L 162.873481 211.141877 
L 158.722165 216.80466 
L 158.415221 217.221327 
L 154.240555 222.467443 
L 153.083777 223.89024 
L 149.950497 228.130226 
L 147.752333 231.148438 
L 145.569271 233.79301 
L 142.420889 237.849255 
L 141.259605 239.455793 
L 138.307471 245.118576 
L 137.089445 247.38077 
L 135.111375 250.781359 
L 131.758001 255.972264 
L 131.44398 256.444143 
L 128.156992 262.106926 
L 126.426557 266.00422 
L 125.611002 267.769709 
L 123.667323 273.432492 
L 122.028532 279.095276 
L 121.095113 283.064175 
L 120.667321 284.758059 
L 119.895275 290.420842 
L 118.966646 296.083625 
L 117.690136 301.746408 
L 117.665425 307.409192 
L 119.125919 313.071975 
L 121.095113 318.412878 
L 121.245727 318.734758 
L 123.73695 324.397541 
L 126.426557 327.679063 
L 129.280532 330.060325 
z
M 138.446456 313.071975 
L 137.089445 312.27873 
L 132.691531 307.409192 
L 131.758001 306.040222 
L 129.615109 301.746408 
L 128.956531 296.083625 
L 129.075439 290.420842 
L 129.637743 284.758059 
L 130.485656 279.095276 
L 131.595865 273.432492 
L 131.758001 272.883436 
L 133.160338 267.769709 
L 135.787298 262.106926 
L 137.089445 259.944297 
L 139.336418 256.444143 
L 142.420889 251.014233 
L 142.528131 250.781359 
L 145.574015 245.118576 
L 147.752333 242.035654 
L 149.805982 239.455793 
L 153.083777 235.008327 
L 153.845811 233.79301 
L 157.850203 228.130226 
L 158.415221 227.444522 
L 162.211051 222.467443 
L 163.746665 220.431314 
L 166.305508 216.80466 
L 169.078109 213.36464 
L 171.056475 211.141877 
L 174.409553 207.521165 
L 176.512054 205.479094 
L 179.740997 202.544334 
L 182.870726 199.81631 
L 185.072441 197.826723 
L 188.545986 194.153527 
L 190.403885 192.039174 
L 193.727768 188.490744 
L 195.735329 186.616721 
L 200.178804 182.827961 
L 201.066773 182.060717 
L 206.398217 177.263804 
L 206.520623 177.165177 
L 211.729661 173.36799 
L 215.244876 171.502394 
L 217.061105 170.498842 
L 222.392549 167.986189 
L 227.723993 166.051583 
L 228.341548 165.839611 
L 233.055437 164.129224 
L 238.386881 162.319275 
L 243.718325 160.705466 
L 247.662452 160.176828 
L 249.049769 159.986156 
L 254.381213 160.084392 
L 256.688644 160.176828 
L 259.712657 160.292254 
L 265.044102 161.331688 
L 270.375546 164.790954 
L 271.358248 165.839611 
L 275.22946 171.502394 
L 275.70699 172.924411 
L 277.109572 177.165177 
L 278.087532 182.827961 
L 278.355317 188.490744 
L 277.47794 194.153527 
L 275.70699 198.805744 
L 275.32753 199.81631 
L 273.186506 205.479094 
L 271.02118 211.141877 
L 270.375546 212.25197 
L 268.032419 216.80466 
L 265.189244 222.467443 
L 265.044102 222.786573 
L 262.572431 228.130226 
L 259.712657 232.665009 
L 259.085306 233.79301 
L 256.433652 239.455793 
L 254.381213 243.640706 
L 253.59818 245.118576 
L 249.398462 250.781359 
L 249.049769 251.211869 
L 244.039565 256.444143 
L 243.718325 256.764223 
L 238.386881 261.218419 
L 237.365561 262.106926 
L 233.055437 266.519633 
L 232.140011 267.769709 
L 228.094823 273.432492 
L 227.723993 273.842567 
L 222.648437 279.095276 
L 222.392549 279.323162 
L 217.061105 284.181841 
L 216.472583 284.758059 
L 211.729661 290.162842 
L 211.482256 290.420842 
L 206.398217 294.527021 
L 203.755026 296.083625 
L 201.066773 297.75258 
L 195.735329 300.686701 
L 193.643384 301.746408 
L 190.403885 303.460883 
L 185.072441 306.212004 
L 183.057512 307.409192 
L 179.740997 309.738469 
L 174.409553 313.065681 
L 174.390938 313.071975 
L 169.078109 314.769152 
L 163.746665 315.756708 
L 158.415221 316.603048 
L 153.083777 316.797898 
L 147.752333 316.047345 
L 142.420889 314.731046 
z
" style="fill:#ed8a6f;"/>
   </g>
   <g id="PathCollection_5">
    <path clip-path="url(#pf00fab8a34)" d="M 142.420889 314.731046 
L 147.752333 316.047345 
L 153.083777 316.797898 
L 158.415221 316.603048 
L 163.746665 315.756708 
L 169.078109 314.769152 
L 174.390938 313.071975 
L 174.409553 313.065681 
L 179.740997 309.738469 
L 183.057512 307.409192 
L 185.072441 306.212004 
L 190.403885 303.460883 
L 193.643384 301.746408 
L 195.735329 300.686701 
L 201.066773 297.75258 
L 203.755026 296.083625 
L 206.398217 294.527021 
L 211.482256 290.420842 
L 211.729661 290.162842 
L 216.472583 284.758059 
L 217.061105 284.181841 
L 222.392549 279.323162 
L 222.648437 279.095276 
L 227.723993 273.842567 
L 228.094823 273.432492 
L 232.140011 267.769709 
L 233.055437 266.519633 
L 237.365561 262.106926 
L 238.386881 261.218419 
L 243.718325 256.764223 
L 244.039565 256.444143 
L 249.049769 251.211869 
L 249.398462 250.781359 
L 253.59818 245.118576 
L 254.381213 243.640706 
L 256.433652 239.455793 
L 259.085306 233.79301 
L 259.712657 232.665009 
L 262.572431 228.130226 
L 265.044102 222.786573 
L 265.189244 222.467443 
L 268.032419 216.80466 
L 270.375546 212.25197 
L 271.02118 211.141877 
L 273.186506 205.479094 
L 275.32753 199.81631 
L 275.70699 198.805744 
L 277.47794 194.153527 
L 278.355317 188.490744 
L 278.087532 182.827961 
L 277.109572 177.165177 
L 275.70699 172.924411 
L 275.22946 171.502394 
L 271.358248 165.839611 
L 270.375546 164.790954 
L 265.044102 161.331688 
L 259.712657 160.292254 
L 256.688644 160.176828 
L 254.381213 160.084392 
L 249.049769 159.986156 
L 247.662452 160.176828 
L 243.718325 160.705466 
L 238.386881 162.319275 
L 233.055437 164.129224 
L 228.341548 165.839611 
L 227.723993 166.051583 
L 222.392549 167.986189 
L 217.061105 170.498842 
L 215.244876 171.502394 
L 211.729661 173.36799 
L 206.520623 177.165177 
L 206.398217 177.263804 
L 201.066773 182.060717 
L 200.178804 182.827961 
L 195.735329 186.616721 
L 193.727768 188.490744 
L 190.403885 192.039174 
L 188.545986 194.153527 
L 185.072441 197.826723 
L 182.870726 199.81631 
L 179.740997 202.544334 
L 176.512054 205.479094 
L 174.409553 207.521165 
L 171.056475 211.141877 
L 169.078109 213.36464 
L 166.305508 216.80466 
L 163.746665 220.431314 
L 162.211051 222.467443 
L 158.415221 227.444522 
L 157.850203 228.130226 
L 153.845811 233.79301 
L 153.083777 235.008327 
L 149.805982 239.455793 
L 147.752333 242.035654 
L 145.574015 245.118576 
L 142.528131 250.781359 
L 142.420889 251.014233 
L 139.336418 256.444143 
L 137.089445 259.944297 
L 135.787298 262.106926 
L 133.160338 267.769709 
L 131.758001 272.883436 
L 131.595865 273.432492 
L 130.485656 279.095276 
L 129.637743 284.758059 
L 129.075439 290.420842 
L 128.956531 296.083625 
L 129.615109 301.746408 
L 131.758001 306.040222 
L 132.691531 307.409192 
L 137.089445 312.27873 
L 138.446456 313.071975 
z
M 148.24751 307.409192 
L 147.752333 307.250981 
L 142.420889 303.18345 
L 141.017661 301.746408 
L 137.973331 296.083625 
L 137.105315 290.420842 
L 137.305768 284.758059 
L 138.019222 279.095276 
L 138.850254 273.432492 
L 140.490025 267.769709 
L 142.420889 264.410102 
L 143.713354 262.106926 
L 146.575966 256.444143 
L 147.752333 253.846758 
L 149.065159 250.781359 
L 152.806936 245.118576 
L 153.083777 244.779158 
L 156.766292 239.455793 
L 158.415221 236.99562 
L 160.55228 233.79301 
L 163.746665 229.524238 
L 164.787641 228.130226 
L 168.562285 222.467443 
L 169.078109 221.762674 
L 173.054927 216.80466 
L 174.409553 215.293033 
L 178.446811 211.141877 
L 179.740997 209.869713 
L 184.373754 205.479094 
L 185.072441 204.853942 
L 190.403885 199.884939 
L 190.481708 199.81631 
L 195.735329 194.1828 
L 195.762672 194.153527 
L 201.066773 189.06058 
L 201.731544 188.490744 
L 206.398217 184.495417 
L 208.63492 182.827961 
L 211.729661 180.337965 
L 216.762679 177.165177 
L 217.061105 177.001448 
L 222.392549 174.980027 
L 227.723993 173.561727 
L 233.055437 171.988697 
L 234.826224 171.502394 
L 238.386881 170.499828 
L 243.718325 169.227789 
L 249.049769 168.408961 
L 254.381213 168.83222 
L 259.712657 169.835233 
L 263.907944 171.502394 
L 265.044102 172.324195 
L 267.91117 177.165177 
L 268.816413 182.827961 
L 269.096023 188.490744 
L 268.731758 194.153527 
L 267.001708 199.81631 
L 265.044102 205.449502 
L 265.034293 205.479094 
L 263.484958 211.141877 
L 261.283417 216.80466 
L 259.712657 220.24472 
L 258.690886 222.467443 
L 255.720668 228.130226 
L 254.381213 230.670953 
L 253.009212 233.79301 
L 250.758699 239.455793 
L 249.049769 242.431356 
L 246.878071 245.118576 
L 243.718325 248.38117 
L 241.26204 250.781359 
L 238.386881 253.493881 
L 235.330478 256.444143 
L 233.055437 258.450165 
L 229.647987 262.106926 
L 227.723993 264.745508 
L 225.84114 267.769709 
L 222.392549 272.458863 
L 221.522674 273.432492 
L 217.061105 277.492155 
L 215.113029 279.095276 
L 211.729661 282.381876 
L 209.545394 284.758059 
L 206.398217 288.046 
L 203.029641 290.420842 
L 201.066773 291.591197 
L 195.735329 294.05476 
L 191.822578 296.083625 
L 190.403885 296.80884 
L 185.072441 299.290619 
L 180.35718 301.746408 
L 179.740997 302.091188 
L 174.409553 304.488617 
L 169.078109 305.827956 
L 163.746665 307.260427 
L 163.140522 307.409192 
L 158.415221 308.536268 
L 153.083777 308.711906 
z
" style="fill:#e86946;"/>
   </g>
   <g id="PathCollection_6">
    <path clip-path="url(#pf00fab8a34)" d="M 153.083777 308.711906 
L 158.415221 308.536268 
L 163.140522 307.409192 
L 163.746665 307.260427 
L 169.078109 305.827956 
L 174.409553 304.488617 
L 179.740997 302.091188 
L 180.35718 301.746408 
L 185.072441 299.290619 
L 190.403885 296.80884 
L 191.822578 296.083625 
L 195.735329 294.05476 
L 201.066773 291.591197 
L 203.029641 290.420842 
L 206.398217 288.046 
L 209.545394 284.758059 
L 211.729661 282.381876 
L 215.113029 279.095276 
L 217.061105 277.492155 
L 221.522674 273.432492 
L 222.392549 272.458863 
L 225.84114 267.769709 
L 227.723993 264.745508 
L 229.647987 262.106926 
L 233.055437 258.450165 
L 235.330478 256.444143 
L 238.386881 253.493881 
L 241.26204 250.781359 
L 243.718325 248.38117 
L 246.878071 245.118576 
L 249.049769 242.431356 
L 250.758699 239.455793 
L 253.009212 233.79301 
L 254.381213 230.670953 
L 255.720668 228.130226 
L 258.690886 222.467443 
L 259.712657 220.24472 
L 261.283417 216.80466 
L 263.484958 211.141877 
L 265.034293 205.479094 
L 265.044102 205.449502 
L 267.001708 199.81631 
L 268.731758 194.153527 
L 269.096023 188.490744 
L 268.816413 182.827961 
L 267.91117 177.165177 
L 265.044102 172.324195 
L 263.907944 171.502394 
L 259.712657 169.835233 
L 254.381213 168.83222 
L 249.049769 168.408961 
L 243.718325 169.227789 
L 238.386881 170.499828 
L 234.826224 171.502394 
L 233.055437 171.988697 
L 227.723993 173.561727 
L 222.392549 174.980027 
L 217.061105 177.001448 
L 216.762679 177.165177 
L 211.729661 180.337965 
L 208.63492 182.827961 
L 206.398217 184.495417 
L 201.731544 188.490744 
L 201.066773 189.06058 
L 195.762672 194.153527 
L 195.735329 194.1828 
L 190.481708 199.81631 
L 190.403885 199.884939 
L 185.072441 204.853942 
L 184.373754 205.479094 
L 179.740997 209.869713 
L 178.446811 211.141877 
L 174.409553 215.293033 
L 173.054927 216.80466 
L 169.078109 221.762674 
L 168.562285 222.467443 
L 164.787641 228.130226 
L 163.746665 229.524238 
L 160.55228 233.79301 
L 158.415221 236.99562 
L 156.766292 239.455793 
L 153.083777 244.779158 
L 152.806936 245.118576 
L 149.065159 250.781359 
L 147.752333 253.846758 
L 146.575966 256.444143 
L 143.713354 262.106926 
L 142.420889 264.410102 
L 140.490025 267.769709 
L 138.850254 273.432492 
L 138.019222 279.095276 
L 137.305768 284.758059 
L 137.105315 290.420842 
L 137.973331 296.083625 
L 141.017661 301.746408 
L 142.420889 303.18345 
L 147.752333 307.250981 
L 148.24751 307.409192 
z
M 148.31152 296.083625 
L 147.752333 294.079596 
L 146.975391 290.420842 
L 146.564945 284.758059 
L 146.34651 279.095276 
L 146.58215 273.432492 
L 147.752333 269.572296 
L 148.276028 267.769709 
L 150.629615 262.106926 
L 152.712586 256.444143 
L 153.083777 255.625981 
L 155.389249 250.781359 
L 158.415221 245.654158 
L 158.681933 245.118576 
L 162.18496 239.455793 
L 163.746665 237.248719 
L 166.600048 233.79301 
L 169.078109 230.476719 
L 170.781099 228.130226 
L 174.409553 222.800337 
L 174.635234 222.467443 
L 179.503336 216.80466 
L 179.740997 216.55937 
L 185.071357 211.141877 
L 185.072441 211.140834 
L 190.403885 206.131615 
L 191.217941 205.479094 
L 195.735329 201.521742 
L 197.531581 199.81631 
L 201.066773 196.032945 
L 202.854568 194.153527 
L 206.398217 191.037788 
L 210.296146 188.490744 
L 211.729661 187.428201 
L 217.061105 184.639741 
L 221.794907 182.827961 
L 222.392549 182.586149 
L 227.723993 181.130843 
L 233.055437 179.773155 
L 238.386881 178.55501 
L 243.718325 177.973648 
L 249.049769 178.623794 
L 254.381213 181.342243 
L 256.00639 182.827961 
L 258.911062 188.490744 
L 259.455557 194.153527 
L 258.539796 199.81631 
L 257.706038 205.479094 
L 256.786595 211.141877 
L 254.888416 216.80466 
L 254.381213 217.867192 
L 252.244774 222.467443 
L 249.538993 228.130226 
L 249.049769 229.359962 
L 247.105792 233.79301 
L 244.061707 239.455793 
L 243.718325 239.874536 
L 238.824443 245.118576 
L 238.386881 245.546793 
L 233.564211 250.781359 
L 233.055437 251.276754 
L 228.047678 256.444143 
L 227.723993 256.791652 
L 223.688682 262.106926 
L 222.392549 264.180514 
L 219.846535 267.769709 
L 217.061105 270.875163 
L 214.029119 273.432492 
L 211.729661 275.279805 
L 207.620311 279.095276 
L 206.398217 280.427123 
L 201.291991 284.758059 
L 201.066773 284.92061 
L 195.735329 287.196159 
L 190.403885 289.780403 
L 188.964197 290.420842 
L 185.072441 292.117328 
L 179.740997 293.77438 
L 174.409553 295.803576 
L 173.717693 296.083625 
L 169.078109 297.665658 
L 163.746665 299.194426 
L 158.415221 300.414288 
L 153.083777 300.243786 
z
" style="fill:#d94b25;"/>
   </g>
   <g id="PathCollection_7">
    <path clip-path="url(#pf00fab8a34)" d="M 153.083777 300.243786 
L 158.415221 300.414288 
L 163.746665 299.194426 
L 169.078109 297.665658 
L 173.717693 296.083625 
L 174.409553 295.803576 
L 179.740997 293.77438 
L 185.072441 292.117328 
L 188.964197 290.420842 
L 190.403885 289.780403 
L 195.735329 287.196159 
L 201.066773 284.92061 
L 201.291991 284.758059 
L 206.398217 280.427123 
L 207.620311 279.095276 
L 211.729661 275.279805 
L 214.029119 273.432492 
L 217.061105 270.875163 
L 219.846535 267.769709 
L 222.392549 264.180514 
L 223.688682 262.106926 
L 227.723993 256.791652 
L 228.047678 256.444143 
L 233.055437 251.276754 
L 233.564211 250.781359 
L 238.386881 245.546793 
L 238.824443 245.118576 
L 243.718325 239.874536 
L 244.061707 239.455793 
L 247.105792 233.79301 
L 249.049769 229.359962 
L 249.538993 228.130226 
L 252.244774 222.467443 
L 254.381213 217.867192 
L 254.888416 216.80466 
L 256.786595 211.141877 
L 257.706038 205.479094 
L 258.539796 199.81631 
L 259.455557 194.153527 
L 258.911062 188.490744 
L 256.00639 182.827961 
L 254.381213 181.342243 
L 249.049769 178.623794 
L 243.718325 177.973648 
L 238.386881 178.55501 
L 233.055437 179.773155 
L 227.723993 181.130843 
L 222.392549 182.586149 
L 221.794907 182.827961 
L 217.061105 184.639741 
L 211.729661 187.428201 
L 210.296146 188.490744 
L 206.398217 191.037788 
L 202.854568 194.153527 
L 201.066773 196.032945 
L 197.531581 199.81631 
L 195.735329 201.521742 
L 191.217941 205.479094 
L 190.403885 206.131615 
L 185.072441 211.140834 
L 185.071357 211.141877 
L 179.740997 216.55937 
L 179.503336 216.80466 
L 174.635234 222.467443 
L 174.409553 222.800337 
L 170.781099 228.130226 
L 169.078109 230.476719 
L 166.600048 233.79301 
L 163.746665 237.248719 
L 162.18496 239.455793 
L 158.681933 245.118576 
L 158.415221 245.654158 
L 155.389249 250.781359 
L 153.083777 255.625981 
L 152.712586 256.444143 
L 150.629615 262.106926 
L 148.276028 267.769709 
L 147.752333 269.572296 
L 146.58215 273.432492 
L 146.34651 279.095276 
L 146.564945 284.758059 
L 146.975391 290.420842 
L 147.752333 294.079596 
L 148.31152 296.083625 
z
M 160.924051 290.420842 
L 158.415221 289.502003 
L 156.276225 284.758059 
L 154.895127 279.095276 
L 154.834466 273.432492 
L 156.003502 267.769709 
L 157.45155 262.106926 
L 158.415221 259.411807 
L 159.464557 256.444143 
L 161.598352 250.781359 
L 163.746665 245.812121 
L 164.046849 245.118576 
L 167.811034 239.455793 
L 169.078109 237.92869 
L 172.700049 233.79301 
L 174.409553 231.402742 
L 176.514799 228.130226 
L 179.740997 223.466571 
L 180.440648 222.467443 
L 185.072441 217.216983 
L 185.489294 216.80466 
L 190.403885 212.100059 
L 191.628059 211.141877 
L 195.735329 207.896691 
L 198.728867 205.479094 
L 201.066773 203.287997 
L 204.114364 199.81631 
L 206.398217 197.413132 
L 210.660201 194.153527 
L 211.729661 193.434782 
L 217.061105 191.494683 
L 222.392549 190.414472 
L 227.723993 189.196047 
L 230.312999 188.490744 
L 233.055437 187.726809 
L 238.386881 187.491552 
L 240.892 188.490744 
L 243.718325 190.262595 
L 246.842298 194.153527 
L 249.049769 197.705806 
L 249.963159 199.81631 
L 250.897447 205.479094 
L 250.420341 211.141877 
L 249.049769 215.517209 
L 248.646148 216.80466 
L 246.216129 222.467443 
L 243.718325 227.347651 
L 243.263887 228.130226 
L 240.078546 233.79301 
L 238.386881 236.334153 
L 236.317255 239.455793 
L 233.055437 243.293589 
L 231.706358 245.118576 
L 227.723993 249.853515 
L 227.003881 250.781359 
L 222.392549 256.016913 
L 222.017539 256.444143 
L 217.752122 262.106926 
L 217.061105 263.061051 
L 212.176241 267.769709 
L 211.729661 268.14528 
L 206.398217 272.534979 
L 205.311522 273.432492 
L 201.066773 277.044835 
L 197.396715 279.095276 
L 195.735329 279.959034 
L 190.403885 282.394942 
L 185.072441 284.227955 
L 181.481988 284.758059 
L 179.740997 285.046903 
L 174.409553 286.510086 
L 169.078109 288.99667 
L 164.959474 290.420842 
L 163.746665 290.812337 
z
" style="fill:#b93a17;"/>
   </g>
   <g id="PathCollection_8">
    <path clip-path="url(#pf00fab8a34)" d="M 163.746665 290.812337 
L 164.959474 290.420842 
L 169.078109 288.99667 
L 174.409553 286.510086 
L 179.740997 285.046903 
L 181.481988 284.758059 
L 185.072441 284.227955 
L 190.403885 282.394942 
L 195.735329 279.959034 
L 197.396715 279.095276 
L 201.066773 277.044835 
L 205.311522 273.432492 
L 206.398217 272.534979 
L 211.729661 268.14528 
L 212.176241 267.769709 
L 217.061105 263.061051 
L 217.752122 262.106926 
L 222.017539 256.444143 
L 222.392549 256.016913 
L 227.003881 250.781359 
L 227.723993 249.853515 
L 231.706358 245.118576 
L 233.055437 243.293589 
L 236.317255 239.455793 
L 238.386881 236.334153 
L 240.078546 233.79301 
L 243.263887 228.130226 
L 243.718325 227.347651 
L 246.216129 222.467443 
L 248.646148 216.80466 
L 249.049769 215.517209 
L 250.420341 211.141877 
L 250.897447 205.479094 
L 249.963159 199.81631 
L 249.049769 197.705806 
L 246.842298 194.153527 
L 243.718325 190.262595 
L 240.892 188.490744 
L 238.386881 187.491552 
L 233.055437 187.726809 
L 230.312999 188.490744 
L 227.723993 189.196047 
L 222.392549 190.414472 
L 217.061105 191.494683 
L 211.729661 193.434782 
L 210.660201 194.153527 
L 206.398217 197.413132 
L 204.114364 199.81631 
L 201.066773 203.287997 
L 198.728867 205.479094 
L 195.735329 207.896691 
L 191.628059 211.141877 
L 190.403885 212.100059 
L 185.489294 216.80466 
L 185.072441 217.216983 
L 180.440648 222.467443 
L 179.740997 223.466571 
L 176.514799 228.130226 
L 174.409553 231.402742 
L 172.700049 233.79301 
L 169.078109 237.92869 
L 167.811034 239.455793 
L 164.046849 245.118576 
L 163.746665 245.812121 
L 161.598352 250.781359 
L 159.464557 256.444143 
L 158.415221 259.411807 
L 157.45155 262.106926 
L 156.003502 267.769709 
L 154.834466 273.432492 
L 154.895127 279.095276 
L 156.276225 284.758059 
L 158.415221 289.502003 
L 160.924051 290.420842 
z
M 163.716167 273.432492 
L 163.746665 272.548486 
L 163.921785 267.769709 
L 164.918485 262.106926 
L 166.387129 256.444143 
L 167.914238 250.781359 
L 169.078109 247.926007 
L 170.471928 245.118576 
L 174.409553 239.571809 
L 174.484255 239.455793 
L 178.634098 233.79301 
L 179.740997 232.024455 
L 182.082668 228.130226 
L 185.072441 223.853924 
L 186.181613 222.467443 
L 190.403885 218.291925 
L 192.471743 216.80466 
L 195.735329 214.333211 
L 200.105172 211.141877 
L 201.066773 210.399992 
L 205.840182 205.479094 
L 206.398217 204.839357 
L 211.586804 199.81631 
L 211.729661 199.705052 
L 217.061105 197.72394 
L 222.392549 197.155819 
L 227.723993 197.446751 
L 233.055437 198.429768 
L 236.65129 199.81631 
L 238.386881 201.150057 
L 241.115287 205.479094 
L 242.317381 211.141877 
L 241.955792 216.80466 
L 240.05372 222.467443 
L 238.386881 225.264055 
L 236.377244 228.130226 
L 233.055437 233.272737 
L 232.728036 233.79301 
L 229.283163 239.455793 
L 227.723993 241.598346 
L 225.542177 245.118576 
L 222.392549 249.1557 
L 221.041401 250.781359 
L 217.061105 255.330023 
L 215.911932 256.444143 
L 211.729661 260.71603 
L 210.082448 262.106926 
L 206.398217 265.10082 
L 203.083523 267.769709 
L 201.066773 269.45115 
L 195.735329 273.120286 
L 195.093213 273.432492 
L 190.403885 275.548543 
L 185.072441 276.452588 
L 179.740997 276.387406 
L 174.409553 277.194325 
L 169.078109 278.564283 
L 163.746665 273.546531 
z
" style="fill:#902d12;"/>
   </g>
   <g id="PathCollection_9">
    <path clip-path="url(#pf00fab8a34)" d="M 163.746665 273.546531 
L 169.078109 278.564283 
L 174.409553 277.194325 
L 179.740997 276.387406 
L 185.072441 276.452588 
L 190.403885 275.548543 
L 195.093213 273.432492 
L 195.735329 273.120286 
L 201.066773 269.45115 
L 203.083523 267.769709 
L 206.398217 265.10082 
L 210.082448 262.106926 
L 211.729661 260.71603 
L 215.911932 256.444143 
L 217.061105 255.330023 
L 221.041401 250.781359 
L 222.392549 249.1557 
L 225.542177 245.118576 
L 227.723993 241.598346 
L 229.283163 239.455793 
L 232.728036 233.79301 
L 233.055437 233.272737 
L 236.377244 228.130226 
L 238.386881 225.264055 
L 240.05372 222.467443 
L 241.955792 216.80466 
L 242.317381 211.141877 
L 241.115287 205.479094 
L 238.386881 201.150057 
L 236.65129 199.81631 
L 233.055437 198.429768 
L 227.723993 197.446751 
L 222.392549 197.155819 
L 217.061105 197.72394 
L 211.729661 199.705052 
L 211.586804 199.81631 
L 206.398217 204.839357 
L 205.840182 205.479094 
L 201.066773 210.399992 
L 200.105172 211.141877 
L 195.735329 214.333211 
L 192.471743 216.80466 
L 190.403885 218.291925 
L 186.181613 222.467443 
L 185.072441 223.853924 
L 182.082668 228.130226 
L 179.740997 232.024455 
L 178.634098 233.79301 
L 174.484255 239.455793 
L 174.409553 239.571809 
L 170.471928 245.118576 
L 169.078109 247.926007 
L 167.914238 250.781359 
L 166.387129 256.444143 
L 164.918485 262.106926 
L 163.921785 267.769709 
L 163.746665 272.548486 
L 163.716167 273.432492 
z
M 174.82995 262.106926 
L 174.911615 256.444143 
L 176.66142 250.781359 
L 178.766839 245.118576 
L 179.740997 243.420838 
L 181.686051 239.455793 
L 184.787332 233.79301 
L 185.072441 233.288356 
L 188.109727 228.130226 
L 190.403885 225.258312 
L 193.831182 222.467443 
L 195.735329 221.151976 
L 201.066773 218.040291 
L 202.684681 216.80466 
L 206.398217 213.52686 
L 208.832117 211.141877 
L 211.729661 208.186723 
L 216.495721 205.479094 
L 217.061105 205.213606 
L 222.392549 205.413405 
L 222.533231 205.479094 
L 227.723993 209.488398 
L 229.178186 211.141877 
L 232.985753 216.80466 
L 232.092135 222.467443 
L 228.466691 228.130226 
L 227.723993 229.389448 
L 225.418401 233.79301 
L 222.88006 239.455793 
L 222.392549 240.28149 
L 219.385903 245.118576 
L 217.061105 247.945135 
L 214.174487 250.781359 
L 211.729661 253.124603 
L 207.797034 256.444143 
L 206.398217 257.610307 
L 201.066773 261.638214 
L 200.319263 262.106926 
L 195.735329 265.188823 
L 190.403885 267.520718 
L 185.072441 266.556232 
L 179.740997 265.288761 
z
" style="fill:#67200d;"/>
   </g>
   <g id="PathCollection_10">
    <path clip-path="url(#pf00fab8a34)" d="M 179.740997 265.288761 
L 185.072441 266.556232 
L 190.403885 267.520718 
L 195.735329 265.188823 
L 200.319263 262.106926 
L 201.066773 261.638214 
L 206.398217 257.610307 
L 207.797034 256.444143 
L 211.729661 253.124603 
L 214.174487 250.781359 
L 217.061105 247.945135 
L 219.385903 245.118576 
L 222.392549 240.28149 
L 222.88006 239.455793 
L 225.418401 233.79301 
L 227.723993 229.389448 
L 228.466691 228.130226 
L 232.092135 222.467443 
L 232.985753 216.80466 
L 229.178186 211.141877 
L 227.723993 209.488398 
L 222.533231 205.479094 
L 222.392549 205.413405 
L 217.061105 205.213606 
L 216.495721 205.479094 
L 211.729661 208.186723 
L 208.832117 211.141877 
L 206.398217 213.52686 
L 202.684681 216.80466 
L 201.066773 218.040291 
L 195.735329 221.151976 
L 193.831182 222.467443 
L 190.403885 225.258312 
L 188.109727 228.130226 
L 185.072441 233.288356 
L 184.787332 233.79301 
L 181.686051 239.455793 
L 179.740997 243.420838 
L 178.766839 245.118576 
L 176.66142 250.781359 
L 174.911615 256.444143 
L 174.82995 262.106926 
z
M 191.926679 250.781359 
L 190.403885 249.319076 
L 188.525367 245.118576 
L 189.444791 239.455793 
L 190.403885 237.260565 
L 192.309452 233.79301 
L 195.735329 229.58094 
L 198.403012 228.130226 
L 201.066773 226.968207 
L 206.398217 223.758239 
L 208.446927 222.467443 
L 211.729661 220.303127 
L 217.061105 218.494714 
L 219.858329 222.467443 
L 218.806429 228.130226 
L 217.085058 233.79301 
L 217.061105 233.857426 
L 214.037218 239.455793 
L 211.729661 242.786287 
L 209.935916 245.118576 
L 206.398217 247.978708 
L 202.408363 250.781359 
L 201.066773 251.629086 
L 195.735329 252.817563 
z
" style="fill:#3c1308;"/>
   </g>
   <g id="PathCollection_11">
    <path clip-path="url(#pf00fab8a34)" d="M 195.735329 252.817563 
L 201.066773 251.629086 
L 202.408363 250.781359 
L 206.398217 247.978708 
L 209.935916 245.118576 
L 211.729661 242.786287 
L 214.037218 239.455793 
L 217.061105 233.857426 
L 217.085058 233.79301 
L 218.806429 228.130226 
L 219.858329 222.467443 
L 217.061105 218.494714 
L 211.729661 220.303127 
L 208.446927 222.467443 
L 206.398217 223.758239 
L 201.066773 226.968207 
L 198.403012 228.130226 
L 195.735329 229.58094 
L 192.309452 233.79301 
L 190.403885 237.260565 
L 189.444791 239.455793 
L 188.525367 245.118576 
L 190.403885 249.319076 
L 191.926679 250.781359 
z
" style="fill:#140602;"/>
   </g>
   <g id="matplotlib.axis_1">
    <g id="xtick_1">
     <g id="line2d_1">
      <defs>
       <path d="M 0 0 
L 0 3.5 
" id="mc03487e57f" style="stroke:#000000;stroke-width:0.8;"/>
      </defs>
      <g>
       <use style="stroke:#000000;stroke-width:0.8;" x="42.620313" xlink:href="#mc03487e57f" y="400.52"/>
      </g>
     </g>
     <g id="text_1">
      <!-- 3 -->
      <defs>
       <path d="M 10.59375 35.5 
L 73.1875 35.5 
L 73.1875 27.203125 
L 10.59375 27.203125 
z
" id="DejaVuSans-8722"/>
       <path d="M 40.578125 39.3125 
Q 47.65625 37.796875 51.625 33 
Q 55.609375 28.21875 55.609375 21.1875 
Q 55.609375 10.40625 48.1875 4.484375 
Q 40.765625 -1.421875 27.09375 -1.421875 
Q 22.515625 -1.421875 17.65625 -0.515625 
Q 12.796875 0.390625 7.625 2.203125 
L 7.625 11.71875 
Q 11.71875 9.328125 16.59375 8.109375 
Q 21.484375 6.890625 26.8125 6.890625 
Q 36.078125 6.890625 40.9375 10.546875 
Q 45.796875 14.203125 45.796875 21.1875 
Q 45.796875 27.640625 41.28125 31.265625 
Q 36.765625 34.90625 28.71875 34.90625 
L 20.21875 34.90625 
L 20.21875 43.015625 
L 29.109375 43.015625 
Q 36.375 43.015625 40.234375 45.921875 
Q 44.09375 48.828125 44.09375 54.296875 
Q 44.09375 59.90625 40.109375 62.90625 
Q 36.140625 65.921875 28.71875 65.921875 
Q 24.65625 65.921875 20.015625 65.03125 
Q 15.375 64.15625 9.8125 62.3125 
L 9.8125 71.09375 
Q 15.4375 72.65625 20.34375 73.4375 
Q 25.25 74.21875 29.59375 74.21875 
Q 40.828125 74.21875 47.359375 69.109375 
Q 53.90625 64.015625 53.90625 55.328125 
Q 53.90625 49.265625 50.4375 45.09375 
Q 46.96875 40.921875 40.578125 39.3125 
z
" id="DejaVuSans-51"/>
      </defs>
      <g transform="translate(35.249219 415.118437)scale(0.1 -0.1)">
       <use xlink:href="#DejaVuSans-8722"/>
       <use x="83.789062" xlink:href="#DejaVuSans-51"/>
      </g>
     </g>
    </g>
    <g id="xtick_2">
     <g id="line2d_2">
      <g>
       <use style="stroke:#000000;stroke-width:0.8;" x="96.289646" xlink:href="#mc03487e57f" y="400.52"/>
      </g>
     </g>
     <g id="text_2">
      <!-- 2 -->
      <defs>
       <path d="M 19.1875 8.296875 
L 53.609375 8.296875 
L 53.609375 0 
L 7.328125 0 
L 7.328125 8.296875 
Q 12.9375 14.109375 22.625 23.890625 
Q 32.328125 33.6875 34.8125 36.53125 
Q 39.546875 41.84375 41.421875 45.53125 
Q 43.3125 49.21875 43.3125 52.78125 
Q 43.3125 58.59375 39.234375 62.25 
Q 35.15625 65.921875 28.609375 65.921875 
Q 23.96875 65.921875 18.8125 64.3125 
Q 13.671875 62.703125 7.8125 59.421875 
L 7.8125 69.390625 
Q 13.765625 71.78125 18.9375 73 
Q 24.125 74.21875 28.421875 74.21875 
Q 39.75 74.21875 46.484375 68.546875 
Q 53.21875 62.890625 53.21875 53.421875 
Q 53.21875 48.921875 51.53125 44.890625 
Q 49.859375 40.875 45.40625 35.40625 
Q 44.1875 33.984375 37.640625 27.21875 
Q 31.109375 20.453125 19.1875 8.296875 
z
" id="DejaVuSans-50"/>
      </defs>
      <g transform="translate(88.918552 415.118437)scale(0.1 -0.1)">
       <use xlink:href="#DejaVuSans-8722"/>
       <use x="83.789062" xlink:href="#DejaVuSans-50"/>
      </g>
     </g>
    </g>
    <g id="xtick_3">
     <g id="line2d_3">
      <g>
       <use style="stroke:#000000;stroke-width:0.8;" x="149.958979" xlink:href="#mc03487e57f" y="400.52"/>
      </g>
     </g>
     <g id="text_3">
      <!-- 1 -->
      <defs>
       <path d="M 12.40625 8.296875 
L 28.515625 8.296875 
L 28.515625 63.921875 
L 10.984375 60.40625 
L 10.984375 69.390625 
L 28.421875 72.90625 
L 38.28125 72.90625 
L 38.28125 8.296875 
L 54.390625 8.296875 
L 54.390625 0 
L 12.40625 0 
z
" id="DejaVuSans-49"/>
      </defs>
      <g transform="translate(142.587885 415.118437)scale(0.1 -0.1)">
       <use xlink:href="#DejaVuSans-8722"/>
       <use x="83.789062" xlink:href="#DejaVuSans-49"/>
      </g>
     </g>
    </g>
    <g id="xtick_4">
     <g id="line2d_4">
      <g>
       <use style="stroke:#000000;stroke-width:0.8;" x="203.628312" xlink:href="#mc03487e57f" y="400.52"/>
      </g>
     </g>
     <g id="text_4">
      <!-- 0 -->
      <defs>
       <path d="M 31.78125 66.40625 
Q 24.171875 66.40625 20.328125 58.90625 
Q 16.5 51.421875 16.5 36.375 
Q 16.5 21.390625 20.328125 13.890625 
Q 24.171875 6.390625 31.78125 6.390625 
Q 39.453125 6.390625 43.28125 13.890625 
Q 47.125 21.390625 47.125 36.375 
Q 47.125 51.421875 43.28125 58.90625 
Q 39.453125 66.40625 31.78125 66.40625 
z
M 31.78125 74.21875 
Q 44.046875 74.21875 50.515625 64.515625 
Q 56.984375 54.828125 56.984375 36.375 
Q 56.984375 17.96875 50.515625 8.265625 
Q 44.046875 -1.421875 31.78125 -1.421875 
Q 19.53125 -1.421875 13.0625 8.265625 
Q 6.59375 17.96875 6.59375 36.375 
Q 6.59375 54.828125 13.0625 64.515625 
Q 19.53125 74.21875 31.78125 74.21875 
z
" id="DejaVuSans-48"/>
      </defs>
      <g transform="translate(200.447062 415.118437)scale(0.1 -0.1)">
       <use xlink:href="#DejaVuSans-48"/>
      </g>
     </g>
    </g>
    <g id="xtick_5">
     <g id="line2d_5">
      <g>
       <use style="stroke:#000000;stroke-width:0.8;" x="257.297646" xlink:href="#mc03487e57f" y="400.52"/>
      </g>
     </g>
     <g id="text_5">
      <!-- 1 -->
      <g transform="translate(254.116396 415.118437)scale(0.1 -0.1)">
       <use xlink:href="#DejaVuSans-49"/>
      </g>
     </g>
    </g>
    <g id="xtick_6">
     <g id="line2d_6">
      <g>
       <use style="stroke:#000000;stroke-width:0.8;" x="310.966979" xlink:href="#mc03487e57f" y="400.52"/>
      </g>
     </g>
     <g id="text_6">
      <!-- 2 -->
      <g transform="translate(307.785729 415.118437)scale(0.1 -0.1)">
       <use xlink:href="#DejaVuSans-50"/>
      </g>
     </g>
    </g>
    <g id="xtick_7">
     <g id="line2d_7">
      <g>
       <use style="stroke:#000000;stroke-width:0.8;" x="364.636312" xlink:href="#mc03487e57f" y="400.52"/>
      </g>
     </g>
     <g id="text_7">
      <!-- 3 -->
      <g transform="translate(361.455062 415.118437)scale(0.1 -0.1)">
       <use xlink:href="#DejaVuSans-51"/>
      </g>
     </g>
    </g>
    <g id="text_8">
     <!-- signal -->
     <defs>
      <path d="M 44.28125 53.078125 
L 44.28125 44.578125 
Q 40.484375 46.53125 36.375 47.5 
Q 32.28125 48.484375 27.875 48.484375 
Q 21.1875 48.484375 17.84375 46.4375 
Q 14.5 44.390625 14.5 40.28125 
Q 14.5 37.15625 16.890625 35.375 
Q 19.28125 33.59375 26.515625 31.984375 
L 29.59375 31.296875 
Q 39.15625 29.25 43.1875 25.515625 
Q 47.21875 21.78125 47.21875 15.09375 
Q 47.21875 7.46875 41.1875 3.015625 
Q 35.15625 -1.421875 24.609375 -1.421875 
Q 20.21875 -1.421875 15.453125 -0.5625 
Q 10.6875 0.296875 5.421875 2 
L 5.421875 11.28125 
Q 10.40625 8.6875 15.234375 7.390625 
Q 20.0625 6.109375 24.8125 6.109375 
Q 31.15625 6.109375 34.5625 8.28125 
Q 37.984375 10.453125 37.984375 14.40625 
Q 37.984375 18.0625 35.515625 20.015625 
Q 33.0625 21.96875 24.703125 23.78125 
L 21.578125 24.515625 
Q 13.234375 26.265625 9.515625 29.90625 
Q 5.8125 33.546875 5.8125 39.890625 
Q 5.8125 47.609375 11.28125 51.796875 
Q 16.75 56 26.8125 56 
Q 31.78125 56 36.171875 55.265625 
Q 40.578125 54.546875 44.28125 53.078125 
z
" id="DejaVuSans-115"/>
      <path d="M 9.421875 54.6875 
L 18.40625 54.6875 
L 18.40625 0 
L 9.421875 0 
z
M 9.421875 75.984375 
L 18.40625 75.984375 
L 18.40625 64.59375 
L 9.421875 64.59375 
z
" id="DejaVuSans-105"/>
      <path d="M 45.40625 27.984375 
Q 45.40625 37.75 41.375 43.109375 
Q 37.359375 48.484375 30.078125 48.484375 
Q 22.859375 48.484375 18.828125 43.109375 
Q 14.796875 37.75 14.796875 27.984375 
Q 14.796875 18.265625 18.828125 12.890625 
Q 22.859375 7.515625 30.078125 7.515625 
Q 37.359375 7.515625 41.375 12.890625 
Q 45.40625 18.265625 45.40625 27.984375 
z
M 54.390625 6.78125 
Q 54.390625 -7.171875 48.1875 -13.984375 
Q 42 -20.796875 29.203125 -20.796875 
Q 24.46875 -20.796875 20.265625 -20.09375 
Q 16.0625 -19.390625 12.109375 -17.921875 
L 12.109375 -9.1875 
Q 16.0625 -11.328125 19.921875 -12.34375 
Q 23.78125 -13.375 27.78125 -13.375 
Q 36.625 -13.375 41.015625 -8.765625 
Q 45.40625 -4.15625 45.40625 5.171875 
L 45.40625 9.625 
Q 42.625 4.78125 38.28125 2.390625 
Q 33.9375 0 27.875 0 
Q 17.828125 0 11.671875 7.65625 
Q 5.515625 15.328125 5.515625 27.984375 
Q 5.515625 40.671875 11.671875 48.328125 
Q 17.828125 56 27.875 56 
Q 33.9375 56 38.28125 53.609375 
Q 42.625 51.21875 45.40625 46.390625 
L 45.40625 54.6875 
L 54.390625 54.6875 
z
" id="DejaVuSans-103"/>
      <path d="M 54.890625 33.015625 
L 54.890625 0 
L 45.90625 0 
L 45.90625 32.71875 
Q 45.90625 40.484375 42.875 44.328125 
Q 39.84375 48.1875 33.796875 48.1875 
Q 26.515625 48.1875 22.3125 43.546875 
Q 18.109375 38.921875 18.109375 30.90625 
L 18.109375 0 
L 9.078125 0 
L 9.078125 54.6875 
L 18.109375 54.6875 
L 18.109375 46.1875 
Q 21.34375 51.125 25.703125 53.5625 
Q 30.078125 56 35.796875 56 
Q 45.21875 56 50.046875 50.171875 
Q 54.890625 44.34375 54.890625 33.015625 
z
" id="DejaVuSans-110"/>
      <path d="M 34.28125 27.484375 
Q 23.390625 27.484375 19.1875 25 
Q 14.984375 22.515625 14.984375 16.5 
Q 14.984375 11.71875 18.140625 8.90625 
Q 21.296875 6.109375 26.703125 6.109375 
Q 34.1875 6.109375 38.703125 11.40625 
Q 43.21875 16.703125 43.21875 25.484375 
L 43.21875 27.484375 
z
M 52.203125 31.203125 
L 52.203125 0 
L 43.21875 0 
L 43.21875 8.296875 
Q 40.140625 3.328125 35.546875 0.953125 
Q 30.953125 -1.421875 24.3125 -1.421875 
Q 15.921875 -1.421875 10.953125 3.296875 
Q 6 8.015625 6 15.921875 
Q 6 25.140625 12.171875 29.828125 
Q 18.359375 34.515625 30.609375 34.515625 
L 43.21875 34.515625 
L 43.21875 35.40625 
Q 43.21875 41.609375 39.140625 45 
Q 35.0625 48.390625 27.6875 48.390625 
Q 23 48.390625 18.546875 47.265625 
Q 14.109375 46.140625 10.015625 43.890625 
L 10.015625 52.203125 
Q 14.9375 54.109375 19.578125 55.046875 
Q 24.21875 56 28.609375 56 
Q 40.484375 56 46.34375 49.84375 
Q 52.203125 43.703125 52.203125 31.203125 
z
" id="DejaVuSans-97"/>
      <path d="M 9.421875 75.984375 
L 18.40625 75.984375 
L 18.40625 0 
L 9.421875 0 
z
" id="DejaVuSans-108"/>
     </defs>
     <g transform="translate(188.838469 428.796562)scale(0.1 -0.1)">
      <use xlink:href="#DejaVuSans-115"/>
      <use x="52.099609" xlink:href="#DejaVuSans-105"/>
      <use x="79.882812" xlink:href="#DejaVuSans-103"/>
      <use x="143.359375" xlink:href="#DejaVuSans-110"/>
      <use x="206.738281" xlink:href="#DejaVuSans-97"/>
      <use x="268.017578" xlink:href="#DejaVuSans-108"/>
     </g>
    </g>
   </g>
   <g id="matplotlib.axis_2">
    <g id="ytick_1">
     <g id="line2d_8">
      <defs>
       <path d="M 0 0 
L -3.5 0 
" id="m8fccc9ffc3" style="stroke:#000000;stroke-width:0.8;"/>
      </defs>
      <g>
       <use style="stroke:#000000;stroke-width:0.8;" x="42.620313" xlink:href="#m8fccc9ffc3" y="400.52"/>
      </g>
     </g>
     <g id="text_9">
      <!-- 4 -->
      <defs>
       <path d="M 37.796875 64.3125 
L 12.890625 25.390625 
L 37.796875 25.390625 
z
M 35.203125 72.90625 
L 47.609375 72.90625 
L 47.609375 25.390625 
L 58.015625 25.390625 
L 58.015625 17.1875 
L 47.609375 17.1875 
L 47.609375 0 
L 37.796875 0 
L 37.796875 17.1875 
L 4.890625 17.1875 
L 4.890625 26.703125 
z
" id="DejaVuSans-52"/>
      </defs>
      <g transform="translate(20.878125 404.319219)scale(0.1 -0.1)">
       <use xlink:href="#DejaVuSans-8722"/>
       <use x="83.789062" xlink:href="#DejaVuSans-52"/>
      </g>
     </g>
    </g>
    <g id="ytick_2">
     <g id="line2d_9">
      <g>
       <use style="stroke:#000000;stroke-width:0.8;" x="42.620313" xlink:href="#m8fccc9ffc3" y="359.783286"/>
      </g>
     </g>
     <g id="text_10">
      <!-- 3 -->
      <g transform="translate(20.878125 363.582504)scale(0.1 -0.1)">
       <use xlink:href="#DejaVuSans-8722"/>
       <use x="83.789062" xlink:href="#DejaVuSans-51"/>
      </g>
     </g>
    </g>
    <g id="ytick_3">
     <g id="line2d_10">
      <g>
       <use style="stroke:#000000;stroke-width:0.8;" x="42.620313" xlink:href="#m8fccc9ffc3" y="319.046571"/>
      </g>
     </g>
     <g id="text_11">
      <!-- 2 -->
      <g transform="translate(20.878125 322.84579)scale(0.1 -0.1)">
       <use xlink:href="#DejaVuSans-8722"/>
       <use x="83.789062" xlink:href="#DejaVuSans-50"/>
      </g>
     </g>
    </g>
    <g id="ytick_4">
     <g id="line2d_11">
      <g>
       <use style="stroke:#000000;stroke-width:0.8;" x="42.620313" xlink:href="#m8fccc9ffc3" y="278.309857"/>
      </g>
     </g>
     <g id="text_12">
      <!-- 1 -->
      <g transform="translate(20.878125 282.109076)scale(0.1 -0.1)">
       <use xlink:href="#DejaVuSans-8722"/>
       <use x="83.789062" xlink:href="#DejaVuSans-49"/>
      </g>
     </g>
    </g>
    <g id="ytick_5">
     <g id="line2d_12">
      <g>
       <use style="stroke:#000000;stroke-width:0.8;" x="42.620313" xlink:href="#m8fccc9ffc3" y="237.573143"/>
      </g>
     </g>
     <g id="text_13">
      <!-- 0 -->
      <g transform="translate(29.257813 241.372362)scale(0.1 -0.1)">
       <use xlink:href="#DejaVuSans-48"/>
      </g>
     </g>
    </g>
    <g id="ytick_6">
     <g id="line2d_13">
      <g>
       <use style="stroke:#000000;stroke-width:0.8;" x="42.620313" xlink:href="#m8fccc9ffc3" y="196.836429"/>
      </g>
     </g>
     <g id="text_14">
      <!-- 1 -->
      <g transform="translate(29.257813 200.635647)scale(0.1 -0.1)">
       <use xlink:href="#DejaVuSans-49"/>
      </g>
     </g>
    </g>
    <g id="ytick_7">
     <g id="line2d_14">
      <g>
       <use style="stroke:#000000;stroke-width:0.8;" x="42.620313" xlink:href="#m8fccc9ffc3" y="156.099714"/>
      </g>
     </g>
     <g id="text_15">
      <!-- 2 -->
      <g transform="translate(29.257813 159.898933)scale(0.1 -0.1)">
       <use xlink:href="#DejaVuSans-50"/>
      </g>
     </g>
    </g>
    <g id="ytick_8">
     <g id="line2d_15">
      <g>
       <use style="stroke:#000000;stroke-width:0.8;" x="42.620313" xlink:href="#m8fccc9ffc3" y="115.363"/>
      </g>
     </g>
     <g id="text_16">
      <!-- 3 -->
      <g transform="translate(29.257813 119.162219)scale(0.1 -0.1)">
       <use xlink:href="#DejaVuSans-51"/>
      </g>
     </g>
    </g>
    <g id="ytick_9">
     <g id="line2d_16">
      <g>
       <use style="stroke:#000000;stroke-width:0.8;" x="42.620313" xlink:href="#m8fccc9ffc3" y="74.626286"/>
      </g>
     </g>
     <g id="text_17">
      <!-- 4 -->
      <g transform="translate(29.257813 78.425504)scale(0.1 -0.1)">
       <use xlink:href="#DejaVuSans-52"/>
      </g>
     </g>
    </g>
    <g id="text_18">
     <!-- response -->
     <defs>
      <path d="M 41.109375 46.296875 
Q 39.59375 47.171875 37.8125 47.578125 
Q 36.03125 48 33.890625 48 
Q 26.265625 48 22.1875 43.046875 
Q 18.109375 38.09375 18.109375 28.8125 
L 18.109375 0 
L 9.078125 0 
L 9.078125 54.6875 
L 18.109375 54.6875 
L 18.109375 46.1875 
Q 20.953125 51.171875 25.484375 53.578125 
Q 30.03125 56 36.53125 56 
Q 37.453125 56 38.578125 55.875 
Q 39.703125 55.765625 41.0625 55.515625 
z
" id="DejaVuSans-114"/>
      <path d="M 56.203125 29.59375 
L 56.203125 25.203125 
L 14.890625 25.203125 
Q 15.484375 15.921875 20.484375 11.0625 
Q 25.484375 6.203125 34.421875 6.203125 
Q 39.59375 6.203125 44.453125 7.46875 
Q 49.3125 8.734375 54.109375 11.28125 
L 54.109375 2.78125 
Q 49.265625 0.734375 44.1875 -0.34375 
Q 39.109375 -1.421875 33.890625 -1.421875 
Q 20.796875 -1.421875 13.15625 6.1875 
Q 5.515625 13.8125 5.515625 26.8125 
Q 5.515625 40.234375 12.765625 48.109375 
Q 20.015625 56 32.328125 56 
Q 43.359375 56 49.78125 48.890625 
Q 56.203125 41.796875 56.203125 29.59375 
z
M 47.21875 32.234375 
Q 47.125 39.59375 43.09375 43.984375 
Q 39.0625 48.390625 32.421875 48.390625 
Q 24.90625 48.390625 20.390625 44.140625 
Q 15.875 39.890625 15.1875 32.171875 
z
" id="DejaVuSans-101"/>
      <path d="M 18.109375 8.203125 
L 18.109375 -20.796875 
L 9.078125 -20.796875 
L 9.078125 54.6875 
L 18.109375 54.6875 
L 18.109375 46.390625 
Q 20.953125 51.265625 25.265625 53.625 
Q 29.59375 56 35.59375 56 
Q 45.5625 56 51.78125 48.09375 
Q 58.015625 40.1875 58.015625 27.296875 
Q 58.015625 14.40625 51.78125 6.484375 
Q 45.5625 -1.421875 35.59375 -1.421875 
Q 29.59375 -1.421875 25.265625 0.953125 
Q 20.953125 3.328125 18.109375 8.203125 
z
M 48.6875 27.296875 
Q 48.6875 37.203125 44.609375 42.84375 
Q 40.53125 48.484375 33.40625 48.484375 
Q 26.265625 48.484375 22.1875 42.84375 
Q 18.109375 37.203125 18.109375 27.296875 
Q 18.109375 17.390625 22.1875 11.75 
Q 26.265625 6.109375 33.40625 6.109375 
Q 40.53125 6.109375 44.609375 11.75 
Q 48.6875 17.390625 48.6875 27.296875 
z
" id="DejaVuSans-112"/>
      <path d="M 30.609375 48.390625 
Q 23.390625 48.390625 19.1875 42.75 
Q 14.984375 37.109375 14.984375 27.296875 
Q 14.984375 17.484375 19.15625 11.84375 
Q 23.34375 6.203125 30.609375 6.203125 
Q 37.796875 6.203125 41.984375 11.859375 
Q 46.1875 17.53125 46.1875 27.296875 
Q 46.1875 37.015625 41.984375 42.703125 
Q 37.796875 48.390625 30.609375 48.390625 
z
M 30.609375 56 
Q 42.328125 56 49.015625 48.375 
Q 55.71875 40.765625 55.71875 27.296875 
Q 55.71875 13.875 49.015625 6.21875 
Q 42.328125 -1.421875 30.609375 -1.421875 
Q 18.84375 -1.421875 12.171875 6.21875 
Q 5.515625 13.875 5.515625 27.296875 
Q 5.515625 40.765625 12.171875 48.375 
Q 18.84375 56 30.609375 56 
z
" id="DejaVuSans-111"/>
     </defs>
     <g transform="translate(14.798438 260.391893)rotate(-90)scale(0.1 -0.1)">
      <use xlink:href="#DejaVuSans-114"/>
      <use x="41.082031" xlink:href="#DejaVuSans-101"/>
      <use x="102.605469" xlink:href="#DejaVuSans-115"/>
      <use x="154.705078" xlink:href="#DejaVuSans-112"/>
      <use x="218.181641" xlink:href="#DejaVuSans-111"/>
      <use x="279.363281" xlink:href="#DejaVuSans-110"/>
      <use x="342.742188" xlink:href="#DejaVuSans-115"/>
      <use x="394.841797" xlink:href="#DejaVuSans-101"/>
     </g>
    </g>
   </g>
   <g id="patch_3">
    <path d="M 42.620313 400.52 
L 42.620313 74.626286 
" style="fill:none;stroke:#000000;stroke-linecap:square;stroke-linejoin:miter;stroke-width:0.8;"/>
   </g>
   <g id="patch_4">
    <path d="M 42.620313 400.52 
L 364.636312 400.52 
" style="fill:none;stroke:#000000;stroke-linecap:square;stroke-linejoin:miter;stroke-width:0.8;"/>
   </g>
  </g>
  <g id="axes_2">
   <g id="patch_5">
    <path d="M 42.620313 63.388571 
L 364.636312 63.388571 
L 364.636312 7.2 
L 42.620313 7.2 
z
" style="fill:#ffffff;"/>
   </g>
   <g id="PolyCollection_1">
    <path clip-path="url(#p3ea682a98e)" d="M -86.831204 63.388512 
L -86.831204 63.388571 
L -82.675197 63.388571 
L -78.519189 63.388571 
L -74.363182 63.388571 
L -70.207174 63.388571 
L -66.051167 63.388571 
L -61.895159 63.388571 
L -57.739152 63.388571 
L -53.583144 63.388571 
L -49.427137 63.388571 
L -45.271129 63.388571 
L -41.115121 63.388571 
L -36.959114 63.388571 
L -32.803106 63.388571 
L -28.647099 63.388571 
L -24.491091 63.388571 
L -20.335084 63.388571 
L -16.179076 63.388571 
L -12.023069 63.388571 
L -7.867061 63.388571 
L -3.711053 63.388571 
L 0.444954 63.388571 
L 4.600962 63.388571 
L 8.756969 63.388571 
L 12.912977 63.388571 
L 17.068984 63.388571 
L 21.224992 63.388571 
L 25.380999 63.388571 
L 29.537007 63.388571 
L 33.693015 63.388571 
L 37.849022 63.388571 
L 42.00503 63.388571 
L 46.161037 63.388571 
L 50.317045 63.388571 
L 54.473052 63.388571 
L 58.62906 63.388571 
L 62.785067 63.388571 
L 66.941075 63.388571 
L 71.097082 63.388571 
L 75.25309 63.388571 
L 79.409098 63.388571 
L 83.565105 63.388571 
L 87.721113 63.388571 
L 91.87712 63.388571 
L 96.033128 63.388571 
L 100.189135 63.388571 
L 104.345143 63.388571 
L 108.50115 63.388571 
L 112.657158 63.388571 
L 116.813166 63.388571 
L 120.969173 63.388571 
L 125.125181 63.388571 
L 129.281188 63.388571 
L 133.437196 63.388571 
L 137.593203 63.388571 
L 141.749211 63.388571 
L 145.905218 63.388571 
L 150.061226 63.388571 
L 154.217233 63.388571 
L 158.373241 63.388571 
L 162.529249 63.388571 
L 166.685256 63.388571 
L 170.841264 63.388571 
L 174.997271 63.388571 
L 179.153279 63.388571 
L 183.309286 63.388571 
L 187.465294 63.388571 
L 191.621301 63.388571 
L 195.777309 63.388571 
L 199.933317 63.388571 
L 204.089324 63.388571 
L 208.245332 63.388571 
L 212.401339 63.388571 
L 216.557347 63.388571 
L 220.713354 63.388571 
L 224.869362 63.388571 
L 229.025369 63.388571 
L 233.181377 63.388571 
L 237.337385 63.388571 
L 241.493392 63.388571 
L 245.6494 63.388571 
L 249.805407 63.388571 
L 253.961415 63.388571 
L 258.117422 63.388571 
L 262.27343 63.388571 
L 266.429437 63.388571 
L 270.585445 63.388571 
L 274.741452 63.388571 
L 278.89746 63.388571 
L 283.053468 63.388571 
L 287.209475 63.388571 
L 291.365483 63.388571 
L 295.52149 63.388571 
L 299.677498 63.388571 
L 303.833505 63.388571 
L 307.989513 63.388571 
L 312.14552 63.388571 
L 316.301528 63.388571 
L 320.457536 63.388571 
L 324.613543 63.388571 
L 328.769551 63.388571 
L 332.925558 63.388571 
L 337.081566 63.388571 
L 341.237573 63.388571 
L 345.393581 63.388571 
L 349.549588 63.388571 
L 353.705596 63.388571 
L 357.861603 63.388571 
L 362.017611 63.388571 
L 366.173619 63.388571 
L 370.329626 63.388571 
L 374.485634 63.388571 
L 378.641641 63.388571 
L 382.797649 63.388571 
L 386.953656 63.388571 
L 391.109664 63.388571 
L 395.265671 63.388571 
L 399.421679 63.388571 
L 403.577687 63.388571 
L 407.733694 63.388571 
L 411.889702 63.388571 
L 416.045709 63.388571 
L 420.201717 63.388571 
L 424.357724 63.388571 
L 428.513732 63.388571 
L 432.669739 63.388571 
L 436.825747 63.388571 
L 440.981754 63.388571 
L 440.981754 63.388448 
L 440.981754 63.388448 
L 436.825747 63.387657 
L 432.669739 63.384486 
L 428.513732 63.377404 
L 424.357724 63.368668 
L 420.201717 63.361883 
L 416.045709 63.356475 
L 411.889702 63.34966 
L 407.733694 63.339604 
L 403.577687 63.32508 
L 399.421679 63.3034 
L 395.265671 63.272793 
L 391.109664 63.233595 
L 386.953656 63.190881 
L 382.797649 63.153711 
L 378.641641 63.119085 
L 374.485634 63.068483 
L 370.329626 62.987309 
L 366.173619 62.881397 
L 362.017611 62.758251 
L 357.861603 62.601096 
L 353.705596 62.364433 
L 349.549588 62.026037 
L 345.393581 61.647671 
L 341.237573 61.284766 
L 337.081566 60.900871 
L 332.925558 60.426487 
L 328.769551 59.81813 
L 324.613543 59.084248 
L 320.457536 58.282257 
L 316.301528 57.42345 
L 312.14552 56.438642 
L 307.989513 55.285077 
L 303.833505 53.99106 
L 299.677498 52.600094 
L 295.52149 51.128199 
L 291.365483 49.524008 
L 287.209475 47.739061 
L 283.053468 45.823222 
L 278.89746 43.772182 
L 274.741452 41.496501 
L 270.585445 39.029199 
L 266.429437 36.546262 
L 262.27343 34.221293 
L 258.117422 32.012304 
L 253.961415 29.677092 
L 249.805407 27.189409 
L 245.6494 24.784191 
L 241.493392 22.558673 
L 237.337385 20.52118 
L 233.181377 18.653339 
L 229.025369 16.792948 
L 224.869362 14.810478 
L 220.713354 12.877162 
L 216.557347 11.368628 
L 212.401339 10.436135 
L 208.245332 9.966641 
L 204.089324 9.875646 
L 199.933317 10.174575 
L 195.777309 10.874273 
L 191.621301 12.030166 
L 187.465294 13.549036 
L 183.309286 15.097223 
L 179.153279 16.532581 
L 174.997271 18.008185 
L 170.841264 19.715241 
L 166.685256 21.697202 
L 162.529249 23.834283 
L 158.373241 26.052136 
L 154.217233 28.388607 
L 150.061226 30.86343 
L 145.905218 33.353038 
L 141.749211 35.683805 
L 137.593203 37.917102 
L 133.437196 40.236791 
L 129.281188 42.640747 
L 125.125181 44.975034 
L 120.969173 47.085882 
L 116.813166 48.971229 
L 112.657158 50.71076 
L 108.50115 52.286473 
L 104.345143 53.703931 
L 100.189135 55.015762 
L 96.033128 56.209692 
L 91.87712 57.256294 
L 87.721113 58.148334 
L 83.565105 58.898063 
L 79.409098 59.552694 
L 75.25309 60.141461 
L 71.097082 60.668158 
L 66.941075 61.163373 
L 62.785067 61.629945 
L 58.62906 62.014422 
L 54.473052 62.296333 
L 50.317045 62.511059 
L 46.161037 62.693057 
L 42.00503 62.842 
L 37.849022 62.951738 
L 33.693015 63.034734 
L 29.537007 63.106721 
L 25.380999 63.171999 
L 21.224992 63.225542 
L 17.068984 63.26214 
L 12.912977 63.284044 
L 8.756969 63.297862 
L 4.600962 63.308549 
L 0.444954 63.321501 
L -3.711053 63.339497 
L -7.867061 63.358071 
L -12.023069 63.371565 
L -16.179076 63.37935 
L -20.335084 63.384075 
L -24.491091 63.386986 
L -28.647099 63.388209 
L -32.803106 63.388456 
L -36.959114 63.388116 
L -41.115121 63.386831 
L -45.271129 63.384606 
L -49.427137 63.383405 
L -53.583144 63.384705 
L -57.739152 63.3865 
L -61.895159 63.386349 
L -66.051167 63.384495 
L -70.207174 63.383472 
L -74.363182 63.384903 
L -78.519189 63.387067 
L -82.675197 63.388219 
L -86.831204 63.388512 
z
" style="fill:#cd401a;fill-opacity:0.25;"/>
   </g>
   <g id="matplotlib.axis_3">
    <g id="xtick_8">
     <g id="line2d_17">
      <g>
       <use style="stroke:#000000;stroke-width:0.8;" x="42.620313" xlink:href="#mc03487e57f" y="63.388571"/>
      </g>
     </g>
    </g>
    <g id="xtick_9">
     <g id="line2d_18">
      <g>
       <use style="stroke:#000000;stroke-width:0.8;" x="96.289646" xlink:href="#mc03487e57f" y="63.388571"/>
      </g>
     </g>
    </g>
    <g id="xtick_10">
     <g id="line2d_19">
      <g>
       <use style="stroke:#000000;stroke-width:0.8;" x="149.958979" xlink:href="#mc03487e57f" y="63.388571"/>
      </g>
     </g>
    </g>
    <g id="xtick_11">
     <g id="line2d_20">
      <g>
       <use style="stroke:#000000;stroke-width:0.8;" x="203.628312" xlink:href="#mc03487e57f" y="63.388571"/>
      </g>
     </g>
    </g>
    <g id="xtick_12">
     <g id="line2d_21">
      <g>
       <use style="stroke:#000000;stroke-width:0.8;" x="257.297646" xlink:href="#mc03487e57f" y="63.388571"/>
      </g>
     </g>
    </g>
    <g id="xtick_13">
     <g id="line2d_22">
      <g>
       <use style="stroke:#000000;stroke-width:0.8;" x="310.966979" xlink:href="#mc03487e57f" y="63.388571"/>
      </g>
     </g>
    </g>
    <g id="xtick_14">
     <g id="line2d_23">
      <g>
       <use style="stroke:#000000;stroke-width:0.8;" x="364.636312" xlink:href="#mc03487e57f" y="63.388571"/>
      </g>
     </g>
    </g>
   </g>
   <g id="matplotlib.axis_4">
    <g id="ytick_10"/>
    <g id="ytick_11"/>
   </g>
   <g id="line2d_24">
    <path clip-path="url(#p3ea682a98e)" d="M -1 63.327758 
L 29.537007 63.106721 
L 42.00503 62.842 
L 54.473052 62.296333 
L 62.785067 61.629945 
L 75.25309 60.141461 
L 83.565105 58.898063 
L 87.721113 58.148334 
L 91.87712 57.256294 
L 96.033128 56.209692 
L 100.189135 55.015762 
L 108.50115 52.286473 
L 112.657158 50.71076 
L 116.813166 48.971229 
L 120.969173 47.085882 
L 125.125181 44.975034 
L 150.061226 30.86343 
L 154.217233 28.388607 
L 162.529249 23.834283 
L 166.685256 21.697202 
L 170.841264 19.715241 
L 174.997271 18.008185 
L 191.621301 12.030166 
L 195.777309 10.874273 
L 199.933317 10.174575 
L 204.089324 9.875646 
L 208.245332 9.966641 
L 212.401339 10.436135 
L 216.557347 11.368628 
L 220.713354 12.877162 
L 241.493392 22.558673 
L 245.6494 24.784191 
L 258.117422 32.012304 
L 266.429437 36.546262 
L 274.741452 41.496501 
L 278.89746 43.772182 
L 283.053468 45.823222 
L 287.209475 47.739061 
L 291.365483 49.524008 
L 295.52149 51.128199 
L 303.833505 53.99106 
L 307.989513 55.285077 
L 312.14552 56.438642 
L 316.301528 57.42345 
L 324.613543 59.084248 
L 328.769551 59.81813 
L 332.925558 60.426487 
L 341.237573 61.284766 
L 353.705596 62.364433 
L 362.017611 62.758251 
L 374.485634 63.068483 
L 403.577687 63.32508 
L 439.460312 63.388158 
L 439.460312 63.388158 
" style="fill:none;stroke:#cd401a;stroke-linecap:square;stroke-width:1.5;"/>
   </g>
   <g id="patch_6">
    <path d="M 42.620313 63.388571 
L 364.636312 63.388571 
" style="fill:none;stroke:#000000;stroke-linecap:square;stroke-linejoin:miter;stroke-width:0.8;"/>
   </g>
  </g>
  <g id="axes_3">
   <g id="patch_7">
    <path d="M 375.740312 400.52 
L 431.260312 400.52 
L 431.260312 74.626286 
L 375.740312 74.626286 
z
" style="fill:#ffffff;"/>
   </g>
   <g id="PolyCollection_2">
    <path clip-path="url(#pa18beadff2)" d="M 375.740386 545.246087 
L 375.740312 545.246087 
L 375.740312 540.831791 
L 375.740312 536.417496 
L 375.740312 532.0032 
L 375.740312 527.588905 
L 375.740312 523.174609 
L 375.740312 518.760314 
L 375.740312 514.346018 
L 375.740312 509.931722 
L 375.740312 505.517427 
L 375.740312 501.103131 
L 375.740312 496.688836 
L 375.740312 492.27454 
L 375.740312 487.860244 
L 375.740312 483.445949 
L 375.740312 479.031653 
L 375.740312 474.617358 
L 375.740312 470.203062 
L 375.740312 465.788767 
L 375.740312 461.374471 
L 375.740312 456.960175 
L 375.740312 452.54588 
L 375.740312 448.131584 
L 375.740312 443.717289 
L 375.740312 439.302993 
L 375.740312 434.888697 
L 375.740312 430.474402 
L 375.740312 426.060106 
L 375.740312 421.645811 
L 375.740312 417.231515 
L 375.740312 412.81722 
L 375.740312 408.402924 
L 375.740312 403.988628 
L 375.740312 399.574333 
L 375.740312 395.160037 
L 375.740312 390.745742 
L 375.740312 386.331446 
L 375.740312 381.91715 
L 375.740312 377.502855 
L 375.740312 373.088559 
L 375.740312 368.674264 
L 375.740312 364.259968 
L 375.740312 359.845673 
L 375.740312 355.431377 
L 375.740312 351.017081 
L 375.740312 346.602786 
L 375.740312 342.18849 
L 375.740312 337.774195 
L 375.740312 333.359899 
L 375.740312 328.945603 
L 375.740312 324.531308 
L 375.740312 320.117012 
L 375.740312 315.702717 
L 375.740312 311.288421 
L 375.740312 306.874126 
L 375.740312 302.45983 
L 375.740312 298.045534 
L 375.740312 293.631239 
L 375.740312 289.216943 
L 375.740312 284.802648 
L 375.740312 280.388352 
L 375.740312 275.974056 
L 375.740312 271.559761 
L 375.740312 267.145465 
L 375.740312 262.73117 
L 375.740312 258.316874 
L 375.740312 253.902578 
L 375.740312 249.488283 
L 375.740312 245.073987 
L 375.740312 240.659692 
L 375.740312 236.245396 
L 375.740312 231.831101 
L 375.740312 227.416805 
L 375.740312 223.002509 
L 375.740312 218.588214 
L 375.740312 214.173918 
L 375.740312 209.759623 
L 375.740312 205.345327 
L 375.740312 200.931031 
L 375.740312 196.516736 
L 375.740312 192.10244 
L 375.740312 187.688145 
L 375.740312 183.273849 
L 375.740312 178.859554 
L 375.740312 174.445258 
L 375.740312 170.030962 
L 375.740312 165.616667 
L 375.740312 161.202371 
L 375.740312 156.788076 
L 375.740312 152.37378 
L 375.740312 147.959484 
L 375.740312 143.545189 
L 375.740312 139.130893 
L 375.740312 134.716598 
L 375.740312 130.302302 
L 375.740312 125.888007 
L 375.740312 121.473711 
L 375.740312 117.059415 
L 375.740312 112.64512 
L 375.740312 108.230824 
L 375.740312 103.816529 
L 375.740312 99.402233 
L 375.740312 94.987937 
L 375.740312 90.573642 
L 375.740312 86.159346 
L 375.740312 81.745051 
L 375.740312 77.330755 
L 375.740312 72.91646 
L 375.740312 68.502164 
L 375.740312 64.087868 
L 375.740312 59.673573 
L 375.740312 55.259277 
L 375.740312 50.844982 
L 375.740312 46.430686 
L 375.740312 42.01639 
L 375.740312 37.602095 
L 375.740312 33.187799 
L 375.740312 28.773504 
L 375.740312 24.359208 
L 375.740312 19.944913 
L 375.740312 15.530617 
L 375.740312 11.116321 
L 375.740312 6.702026 
L 375.740312 2.28773 
L 375.740312 -2.126565 
L 375.740312 -6.540861 
L 375.740312 -10.955157 
L 375.740312 -15.369452 
L 375.740371 -15.369452 
L 375.740371 -15.369452 
L 375.74071 -10.955157 
L 375.74211 -6.540861 
L 375.745432 -2.126565 
L 375.750354 2.28773 
L 375.756613 6.702026 
L 375.766169 11.116321 
L 375.779228 15.530617 
L 375.79115 19.944913 
L 375.798438 24.359208 
L 375.807679 28.773504 
L 375.833971 33.187799 
L 375.882552 37.602095 
L 375.939723 42.01639 
L 375.989861 46.430686 
L 376.032921 50.844982 
L 376.090119 55.259277 
L 376.188208 59.673573 
L 376.326936 64.087868 
L 376.4871 68.502164 
L 376.664409 72.91646 
L 376.875168 77.330755 
L 377.129246 81.745051 
L 377.407146 86.159346 
L 377.705464 90.573642 
L 378.076104 94.987937 
L 378.551871 99.402233 
L 379.129944 103.816529 
L 379.857495 108.230824 
L 380.762409 112.64512 
L 381.749332 117.059415 
L 382.75459 121.473711 
L 383.8712 125.888007 
L 385.181883 130.302302 
L 386.630852 134.716598 
L 388.168558 139.130893 
L 389.804778 143.545189 
L 391.504327 147.959484 
L 393.249909 152.37378 
L 395.150923 156.788076 
L 397.323994 161.202371 
L 399.709276 165.616667 
L 402.161246 170.030962 
L 404.617557 174.445258 
L 407.031237 178.859554 
L 409.338938 183.273849 
L 411.578291 187.688145 
L 413.881701 192.10244 
L 416.212815 196.516736 
L 418.388698 200.931031 
L 420.419292 205.345327 
L 422.381543 209.759623 
L 424.171371 214.173918 
L 425.624394 218.588214 
L 426.709471 223.002509 
L 427.4529 227.416805 
L 427.981317 231.831101 
L 428.436573 236.245396 
L 428.616503 240.659692 
L 428.189596 245.073987 
L 427.220762 249.488283 
L 426.045902 253.902578 
L 424.86488 258.316874 
L 423.652821 262.73117 
L 422.264286 267.145465 
L 420.530222 271.559761 
L 418.384624 275.974056 
L 416.014626 280.388352 
L 413.701669 284.802648 
L 411.52901 289.216943 
L 409.354734 293.631239 
L 406.976802 298.045534 
L 404.343251 302.45983 
L 401.651764 306.874126 
L 399.153507 311.288421 
L 396.885824 315.702717 
L 394.755167 320.117012 
L 392.714011 324.531308 
L 390.766854 328.945603 
L 388.89986 333.359899 
L 387.089806 337.774195 
L 385.426797 342.18849 
L 384.069409 346.602786 
L 383.062351 351.017081 
L 382.245751 355.431377 
L 381.458696 359.845673 
L 380.700784 364.259968 
L 379.997733 368.674264 
L 379.342371 373.088559 
L 378.745164 377.502855 
L 378.20553 381.91715 
L 377.714151 386.331446 
L 377.298223 390.745742 
L 376.990145 395.160037 
L 376.771102 399.574333 
L 376.586275 403.988628 
L 376.415761 408.402924 
L 376.28382 412.81722 
L 376.192953 417.231515 
L 376.10544 421.645811 
L 376.007816 426.060106 
L 375.932388 430.474402 
L 375.894507 434.888697 
L 375.874526 439.302993 
L 375.852457 443.717289 
L 375.823511 448.131584 
L 375.793966 452.54588 
L 375.769647 456.960175 
L 375.753167 461.374471 
L 375.745329 465.788767 
L 375.744705 470.203062 
L 375.748229 474.617358 
L 375.75051 479.031653 
L 375.747996 483.445949 
L 375.743674 487.860244 
L 375.741192 492.27454 
L 375.740517 496.688836 
L 375.740774 501.103131 
L 375.742093 505.517427 
L 375.744672 509.931722 
L 375.747369 514.346018 
L 375.749398 518.760314 
L 375.750865 523.174609 
L 375.750002 527.588905 
L 375.746235 532.0032 
L 375.742547 536.417496 
L 375.74082 540.831791 
L 375.740386 545.246087 
z
" style="fill:#cd401a;fill-opacity:0.25;"/>
   </g>
   <g id="matplotlib.axis_5">
    <g id="xtick_15"/>
    <g id="xtick_16"/>
   </g>
   <g id="matplotlib.axis_6">
    <g id="ytick_12">
     <g id="line2d_25">
      <g>
       <use style="stroke:#000000;stroke-width:0.8;" x="375.740312" xlink:href="#m8fccc9ffc3" y="400.52"/>
      </g>
     </g>
    </g>
    <g id="ytick_13">
     <g id="line2d_26">
      <g>
       <use style="stroke:#000000;stroke-width:0.8;" x="375.740312" xlink:href="#m8fccc9ffc3" y="359.783286"/>
      </g>
     </g>
    </g>
    <g id="ytick_14">
     <g id="line2d_27">
      <g>
       <use style="stroke:#000000;stroke-width:0.8;" x="375.740312" xlink:href="#m8fccc9ffc3" y="319.046571"/>
      </g>
     </g>
    </g>
    <g id="ytick_15">
     <g id="line2d_28">
      <g>
       <use style="stroke:#000000;stroke-width:0.8;" x="375.740312" xlink:href="#m8fccc9ffc3" y="278.309857"/>
      </g>
     </g>
    </g>
    <g id="ytick_16">
     <g id="line2d_29">
      <g>
       <use style="stroke:#000000;stroke-width:0.8;" x="375.740312" xlink:href="#m8fccc9ffc3" y="237.573143"/>
      </g>
     </g>
    </g>
    <g id="ytick_17">
     <g id="line2d_30">
      <g>
       <use style="stroke:#000000;stroke-width:0.8;" x="375.740312" xlink:href="#m8fccc9ffc3" y="196.836429"/>
      </g>
     </g>
    </g>
    <g id="ytick_18">
     <g id="line2d_31">
      <g>
       <use style="stroke:#000000;stroke-width:0.8;" x="375.740312" xlink:href="#m8fccc9ffc3" y="156.099714"/>
      </g>
     </g>
    </g>
    <g id="ytick_19">
     <g id="line2d_32">
      <g>
       <use style="stroke:#000000;stroke-width:0.8;" x="375.740312" xlink:href="#m8fccc9ffc3" y="115.363"/>
      </g>
     </g>
    </g>
    <g id="ytick_20">
     <g id="line2d_33">
      <g>
       <use style="stroke:#000000;stroke-width:0.8;" x="375.740312" xlink:href="#m8fccc9ffc3" y="74.626286"/>
      </g>
     </g>
    </g>
   </g>
   <g id="line2d_34">
    <path clip-path="url(#pa18beadff2)" d="M 375.875552 439.07625 
L 376.007816 426.060106 
L 376.586275 403.988628 
L 376.990145 395.160037 
L 377.714151 386.331446 
L 378.745164 377.502855 
L 379.997733 368.674264 
L 381.458696 359.845673 
L 383.062351 351.017081 
L 384.069409 346.602786 
L 385.426797 342.18849 
L 387.089806 337.774195 
L 390.766854 328.945603 
L 394.755167 320.117012 
L 396.885824 315.702717 
L 399.153507 311.288421 
L 401.651764 306.874126 
L 406.976802 298.045534 
L 409.354734 293.631239 
L 413.701669 284.802648 
L 420.530222 271.559761 
L 422.264286 267.145465 
L 423.652821 262.73117 
L 427.220762 249.488283 
L 428.189596 245.073987 
L 428.616503 240.659692 
L 428.436573 236.245396 
L 427.4529 227.416805 
L 426.709471 223.002509 
L 425.624394 218.588214 
L 424.171371 214.173918 
L 422.381543 209.759623 
L 418.388698 200.931031 
L 416.212815 196.516736 
L 409.338938 183.273849 
L 404.617557 174.445258 
L 397.323994 161.202371 
L 395.150923 156.788076 
L 393.249909 152.37378 
L 389.804778 143.545189 
L 386.630852 134.716598 
L 385.181883 130.302302 
L 383.8712 125.888007 
L 381.749332 117.059415 
L 379.857495 108.230824 
L 379.129944 103.816529 
L 378.076104 94.987937 
L 377.407146 86.159346 
L 376.664409 72.91646 
L 376.188208 59.673573 
L 375.989861 46.430686 
L 375.79115 19.944913 
L 375.746688 -1 
L 375.746688 -1 
" style="fill:none;stroke:#cd401a;stroke-linecap:square;stroke-width:1.5;"/>
   </g>
   <g id="patch_8">
    <path d="M 375.740312 400.52 
L 375.740312 74.626286 
" style="fill:none;stroke:#000000;stroke-linecap:square;stroke-linejoin:miter;stroke-width:0.8;"/>
   </g>
  </g>
 </g>
 <defs>
  <clipPath id="pf00fab8a34">
   <rect height="325.893714" width="322.016" x="42.620313" y="74.626286"/>
  </clipPath>
  <clipPath id="p3ea682a98e">
   <rect height="56.188571" width="322.016" x="42.620313" y="7.2"/>
  </clipPath>
  <clipPath id="pa18beadff2">
   <rect height="325.893714" width="55.52" x="375.740312" y="74.626286"/>
  </clipPath>
 </defs>
</svg>
