<?xml version="1.0" encoding="UTF-8" standalone="no"?><!DOCTYPE svg PUBLIC "-//W3C//DTD SVG 1.1//EN" "http://www.w3.org/Graphics/SVG/1.1/DTD/svg11.dtd"><svg width="100%" height="100%" viewBox="0 0 420 420" version="1.1" xmlns="http://www.w3.org/2000/svg" xmlns:xlink="http://www.w3.org/1999/xlink" xml:space="preserve" xmlns:serif="http://www.serif.com/" style="fill-rule:evenodd;clip-rule:evenodd;stroke-linecap:square;stroke-linejoin:round;stroke-miterlimit:1.5;"><rect id="shannon" x="0" y="0" width="420" height="420" style="fill:none;"/><g id="shannon1" serif:id="shannon"><text x="136.945px" y="66.335px" style="font-family:'DejaVuSans', 'DejaVu Sans', sans-serif;font-size:48px;fill:#4aa54a;">Signal</text><text x="95.402px" y="380.15px" style="font-family:'DejaVuSans', 'DejaVu Sans', sans-serif;font-size:48px;fill:#413ea3;">R<tspan x="126.598px 156.129px " y="380.15px 380.15px ">es</tspan>ponse</text><path d="M359.744,179.393c0,-16.892 -13.715,-30.607 -30.607,-30.607l-238.274,0c-16.892,0 -30.607,13.715 -30.607,30.607l0,61.214c0,16.892 13.715,30.607 30.607,30.607l238.274,0c16.892,0 30.607,-13.715 30.607,-30.607l0,-61.214Z" style="fill:#cd401a;"/><text x="166.043px" y="210px" style="font-family:'DejaVuSans', 'DejaVu Sans', sans-serif;font-size:48px;fill:#fff;">Cell</text><g transform="matrix(1.44377,0,0,1.44377,-742.281,-51.1585)"><text x="597.229px" y="206.755px" style="font-family:'DejaVuSansCondensed', 'DejaVu Sans', sans-serif;font-stretch:semi-condensed;font-size:13px;fill:#fff;fill-opacity:0.8;">(</text><text x="602.313px" y="206.755px" style="font-family:'DejaVuSansCondensed', 'DejaVu Sans', sans-serif;font-stretch:semi-condensed;font-size:13px;fill:#fff;fill-opacity:0.8;">infor<tspan x="628.821px 640.215px " y="206.755px 206.755px ">ma</tspan>tion channel)</text></g><path d="M216,124.762l-6,12l-6,-12c3,3 9,3 12,0Z"/><path d="M210,87.77l0,39.392" style="fill:none;stroke:#000;stroke-width:4px;"/><path d="M216,321.707l-6,12l-6,-12c3,3 9,3 12,0Z"/><path d="M210,283.238l0,40.869" style="fill:none;stroke:#000;stroke-width:4px;"/></g></svg>