<svg height="375.652174pt" version="1.1" viewBox="0 0 751.304348 375.652174" width="751.304348pt" xmlns="http://www.w3.org/2000/svg" xmlns:xlink="http://www.w3.org/1999/xlink"> <defs>  <style type="text/css">*{stroke-linecap:butt;stroke-linejoin:round;}  </style> </defs> <g id="figure_1">  <g id="patch_1">   <path d="M 0 375.652174 L 751.304348 375.652174 L 751.304348 0 L 0 0 z" style="fill:#ffffff;"/>  </g>  <g id="axes_1">   <g id="patch_2">    <path d="M 93.913043 328.695652 L 676.173913 328.695652 L 676.173913 45.078261 L 93.913043 45.078261 z" style="fill:#eaeaf2;"/>   </g>   <g id="matplotlib.axis_1">    <g id="xtick_1">     <g id="line2d_1">      <path clip-path="url(#p75512b1eba)" d="M 93.913043 328.695652 L 93.913043 45.078261 " style="fill:none;stroke:#ffffff;stroke-linecap:round;"/>     </g>     <g id="text_1">      <!-- 0 -->      <defs>       <path d="M 31.78125 66.40625 Q 24.171875 66.40625 20.328125 58.90625 Q 16.5 51.421875 16.5 36.375 Q 16.5 21.390625 20.328125 13.890625 Q 24.171875 6.390625 31.78125 6.390625 Q 39.453125 6.390625 43.28125 13.890625 Q 47.125 21.390625 47.125 36.375 Q 47.125 51.421875 43.28125 58.90625 Q 39.453125 66.40625 31.78125 66.40625 zM 31.78125 74.21875 Q 44.046875 74.21875 50.515625 64.515625 Q 56.984375 54.828125 56.984375 36.375 Q 56.984375 17.96875 50.515625 8.265625 Q 44.046875 -1.421875 31.78125 -1.421875 Q 19.53125 -1.421875 13.0625 8.265625 Q 6.59375 17.96875 6.59375 36.375 Q 6.59375 54.828125 13.0625 64.515625 Q 19.53125 74.21875 31.78125 74.21875 z" id="DejaVuSans-48"/>      </defs>      <g style="fill:#262626;" transform="translate(89.363856 349.061418)scale(0.143 -0.143)">       <use xlink:href="#DejaVuSans-48"/>      </g>     </g>    </g>    <g id="xtick_2">     <g id="line2d_2">      <path clip-path="url(#p75512b1eba)" d="M 158.608696 328.695652 L 158.608696 45.078261 " style="fill:none;stroke:#ffffff;stroke-linecap:round;"/>     </g>     <g id="text_2">      <!-- 50 -->      <defs>       <path d="M 10.796875 72.90625 L 49.515625 72.90625 L 49.515625 64.59375 L 19.828125 64.59375 L 19.828125 46.734375 Q 21.96875 47.46875 24.109375 47.828125 Q 26.265625 48.1875 28.421875 48.1875 Q 40.625 48.1875 47.75 41.5 Q 54.890625 34.8125 54.890625 23.390625 Q 54.890625 11.625 47.5625 5.09375 Q 40.234375 -1.421875 26.90625 -1.421875 Q 22.3125 -1.421875 17.546875 -0.640625 Q 12.796875 0.140625 7.71875 1.703125 L 7.71875 11.625 Q 12.109375 9.234375 16.796875 8.0625 Q 21.484375 6.890625 26.703125 6.890625 Q 35.15625 6.890625 40.078125 11.328125 Q 45.015625 15.765625 45.015625 23.390625 Q 45.015625 31 40.078125 35.4375 Q 35.15625 39.890625 26.703125 39.890625 Q 22.75 39.890625 18.8125 39.015625 Q 14.890625 38.140625 10.796875 36.28125 z" id="DejaVuSans-53"/>      </defs>      <g style="fill:#262626;" transform="translate(149.510321 349.061418)scale(0.143 -0.143)">       <use xlink:href="#DejaVuSans-53"/>       <use x="63.623047" xlink:href="#DejaVuSans-48"/>      </g>     </g>    </g>    <g id="xtick_3">     <g id="line2d_3">      <path clip-path="url(#p75512b1eba)" d="M 223.304348 328.695652 L 223.304348 45.078261 " style="fill:none;stroke:#ffffff;stroke-linecap:round;"/>     </g>     <g id="text_3">      <!-- 100 -->      <defs>       <path d="M 12.40625 8.296875 L 28.515625 8.296875 L 28.515625 63.921875 L 10.984375 60.40625 L 10.984375 69.390625 L 28.421875 72.90625 L 38.28125 72.90625 L 38.28125 8.296875 L 54.390625 8.296875 L 54.390625 0 L 12.40625 0 z" id="DejaVuSans-49"/>      </defs>      <g style="fill:#262626;" transform="translate(209.656785 349.061418)scale(0.143 -0.143)">       <use xlink:href="#DejaVuSans-49"/>       <use x="63.623047" xlink:href="#DejaVuSans-48"/>       <use x="127.246094" xlink:href="#DejaVuSans-48"/>      </g>     </g>    </g>    <g id="xtick_4">     <g id="line2d_4">      <path clip-path="url(#p75512b1eba)" d="M 288 328.695652 L 288 45.078261 " style="fill:none;stroke:#ffffff;stroke-linecap:round;"/>     </g>     <g id="text_4">      <!-- 150 -->      <g style="fill:#262626;" transform="translate(274.352438 349.061418)scale(0.143 -0.143)">       <use xlink:href="#DejaVuSans-49"/>       <use x="63.623047" xlink:href="#DejaVuSans-53"/>       <use x="127.246094" xlink:href="#DejaVuSans-48"/>      </g>     </g>    </g>    <g id="xtick_5">     <g id="line2d_5">      <path clip-path="url(#p75512b1eba)" d="M 352.695652 328.695652 L 352.695652 45.078261 " style="fill:none;stroke:#ffffff;stroke-linecap:round;"/>     </g>     <g id="text_5">      <!-- 200 -->      <defs>       <path d="M 19.1875 8.296875 L 53.609375 8.296875 L 53.609375 0 L 7.328125 0 L 7.328125 8.296875 Q 12.9375 14.109375 22.625 23.890625 Q 32.328125 33.6875 34.8125 36.53125 Q 39.546875 41.84375 41.421875 45.53125 Q 43.3125 49.21875 43.3125 52.78125 Q 43.3125 58.59375 39.234375 62.25 Q 35.15625 65.921875 28.609375 65.921875 Q 23.96875 65.921875 18.8125 64.3125 Q 13.671875 62.703125 7.8125 59.421875 L 7.8125 69.390625 Q 13.765625 71.78125 18.9375 73 Q 24.125 74.21875 28.421875 74.21875 Q 39.75 74.21875 46.484375 68.546875 Q 53.21875 62.890625 53.21875 53.421875 Q 53.21875 48.921875 51.53125 44.890625 Q 49.859375 40.875 45.40625 35.40625 Q 44.1875 33.984375 37.640625 27.21875 Q 31.109375 20.453125 19.1875 8.296875 z" id="DejaVuSans-50"/>      </defs>      <g style="fill:#262626;" transform="translate(339.04809 349.061418)scale(0.143 -0.143)">       <use xlink:href="#DejaVuSans-50"/>       <use x="63.623047" xlink:href="#DejaVuSans-48"/>       <use x="127.246094" xlink:href="#DejaVuSans-48"/>      </g>     </g>    </g>    <g id="xtick_6">     <g id="line2d_6">      <path clip-path="url(#p75512b1eba)" d="M 417.391304 328.695652 L 417.391304 45.078261 " style="fill:none;stroke:#ffffff;stroke-linecap:round;"/>     </g>     <g id="text_6">      <!-- 250 -->      <g style="fill:#262626;" transform="translate(403.743742 349.061418)scale(0.143 -0.143)">       <use xlink:href="#DejaVuSans-50"/>       <use x="63.623047" xlink:href="#DejaVuSans-53"/>       <use x="127.246094" xlink:href="#DejaVuSans-48"/>      </g>     </g>    </g>    <g id="xtick_7">     <g id="line2d_7">      <path clip-path="url(#p75512b1eba)" d="M 482.086957 328.695652 L 482.086957 45.078261 " style="fill:none;stroke:#ffffff;stroke-linecap:round;"/>     </g>     <g id="text_7">      <!-- 300 -->      <defs>       <path d="M 40.578125 39.3125 Q 47.65625 37.796875 51.625 33 Q 55.609375 28.21875 55.609375 21.1875 Q 55.609375 10.40625 48.1875 4.484375 Q 40.765625 -1.421875 27.09375 -1.421875 Q 22.515625 -1.421875 17.65625 -0.515625 Q 12.796875 0.390625 7.625 2.203125 L 7.625 11.71875 Q 11.71875 9.328125 16.59375 8.109375 Q 21.484375 6.890625 26.8125 6.890625 Q 36.078125 6.890625 40.9375 10.546875 Q 45.796875 14.203125 45.796875 21.1875 Q 45.796875 27.640625 41.28125 31.265625 Q 36.765625 34.90625 28.71875 34.90625 L 20.21875 34.90625 L 20.21875 43.015625 L 29.109375 43.015625 Q 36.375 43.015625 40.234375 45.921875 Q 44.09375 48.828125 44.09375 54.296875 Q 44.09375 59.90625 40.109375 62.90625 Q 36.140625 65.921875 28.71875 65.921875 Q 24.65625 65.921875 20.015625 65.03125 Q 15.375 64.15625 9.8125 62.3125 L 9.8125 71.09375 Q 15.4375 72.65625 20.34375 73.4375 Q 25.25 74.21875 29.59375 74.21875 Q 40.828125 74.21875 47.359375 69.109375 Q 53.90625 64.015625 53.90625 55.328125 Q 53.90625 49.265625 50.4375 45.09375 Q 46.96875 40.921875 40.578125 39.3125 z" id="DejaVuSans-51"/>      </defs>      <g style="fill:#262626;" transform="translate(468.439394 349.061418)scale(0.143 -0.143)">       <use xlink:href="#DejaVuSans-51"/>       <use x="63.623047" xlink:href="#DejaVuSans-48"/>       <use x="127.246094" xlink:href="#DejaVuSans-48"/>      </g>     </g>    </g>    <g id="xtick_8">     <g id="line2d_8">      <path clip-path="url(#p75512b1eba)" d="M 546.782609 328.695652 L 546.782609 45.078261 " style="fill:none;stroke:#ffffff;stroke-linecap:round;"/>     </g>     <g id="text_8">      <!-- 350 -->      <g style="fill:#262626;" transform="translate(533.135046 349.061418)scale(0.143 -0.143)">       <use xlink:href="#DejaVuSans-51"/>       <use x="63.623047" xlink:href="#DejaVuSans-53"/>       <use x="127.246094" xlink:href="#DejaVuSans-48"/>      </g>     </g>    </g>    <g id="xtick_9">     <g id="line2d_9">      <path clip-path="url(#p75512b1eba)" d="M 611.478261 328.695652 L 611.478261 45.078261 " style="fill:none;stroke:#ffffff;stroke-linecap:round;"/>     </g>     <g id="text_9">      <!-- 400 -->      <defs>       <path d="M 37.796875 64.3125 L 12.890625 25.390625 L 37.796875 25.390625 zM 35.203125 72.90625 L 47.609375 72.90625 L 47.609375 25.390625 L 58.015625 25.390625 L 58.015625 17.1875 L 47.609375 17.1875 L 47.609375 0 L 37.796875 0 L 37.796875 17.1875 L 4.890625 17.1875 L 4.890625 26.703125 z" id="DejaVuSans-52"/>      </defs>      <g style="fill:#262626;" transform="translate(597.830698 349.061418)scale(0.143 -0.143)">       <use xlink:href="#DejaVuSans-52"/>       <use x="63.623047" xlink:href="#DejaVuSans-48"/>       <use x="127.246094" xlink:href="#DejaVuSans-48"/>      </g>     </g>    </g>    <g id="xtick_10">     <g id="line2d_10">      <path clip-path="url(#p75512b1eba)" d="M 676.173913 328.695652 L 676.173913 45.078261 " style="fill:none;stroke:#ffffff;stroke-linecap:round;"/>     </g>     <g id="text_10">      <!-- 450 -->      <g style="fill:#262626;" transform="translate(662.526351 349.061418)scale(0.143 -0.143)">       <use xlink:href="#DejaVuSans-52"/>       <use x="63.623047" xlink:href="#DejaVuSans-53"/>       <use x="127.246094" xlink:href="#DejaVuSans-48"/>      </g>     </g>    </g>    <g id="text_11">     <!-- time -->     <defs>      <path d="M 18.3125 70.21875 L 18.3125 54.6875 L 36.8125 54.6875 L 36.8125 47.703125 L 18.3125 47.703125 L 18.3125 18.015625 Q 18.3125 11.328125 20.140625 9.421875 Q 21.96875 7.515625 27.59375 7.515625 L 36.8125 7.515625 L 36.8125 0 L 27.59375 0 Q 17.1875 0 13.234375 3.875 Q 9.28125 7.765625 9.28125 18.015625 L 9.28125 47.703125 L 2.6875 47.703125 L 2.6875 54.6875 L 9.28125 54.6875 L 9.28125 70.21875 z" id="DejaVuSans-116"/>      <path d="M 9.421875 54.6875 L 18.40625 54.6875 L 18.40625 0 L 9.421875 0 zM 9.421875 75.984375 L 18.40625 75.984375 L 18.40625 64.59375 L 9.421875 64.59375 z" id="DejaVuSans-105"/>      <path d="M 52 44.1875 Q 55.375 50.25 60.0625 53.125 Q 64.75 56 71.09375 56 Q 79.640625 56 84.28125 50.015625 Q 88.921875 44.046875 88.921875 33.015625 L 88.921875 0 L 79.890625 0 L 79.890625 32.71875 Q 79.890625 40.578125 77.09375 44.375 Q 74.3125 48.1875 68.609375 48.1875 Q 61.625 48.1875 57.5625 43.546875 Q 53.515625 38.921875 53.515625 30.90625 L 53.515625 0 L 44.484375 0 L 44.484375 32.71875 Q 44.484375 40.625 41.703125 44.40625 Q 38.921875 48.1875 33.109375 48.1875 Q 26.21875 48.1875 22.15625 43.53125 Q 18.109375 38.875 18.109375 30.90625 L 18.109375 0 L 9.078125 0 L 9.078125 54.6875 L 18.109375 54.6875 L 18.109375 46.1875 Q 21.1875 51.21875 25.484375 53.609375 Q 29.78125 56 35.6875 56 Q 41.65625 56 45.828125 52.96875 Q 50 49.953125 52 44.1875 z" id="DejaVuSans-109"/>      <path d="M 56.203125 29.59375 L 56.203125 25.203125 L 14.890625 25.203125 Q 15.484375 15.921875 20.484375 11.0625 Q 25.484375 6.203125 34.421875 6.203125 Q 39.59375 6.203125 44.453125 7.46875 Q 49.3125 8.734375 54.109375 11.28125 L 54.109375 2.78125 Q 49.265625 0.734375 44.1875 -0.34375 Q 39.109375 -1.421875 33.890625 -1.421875 Q 20.796875 -1.421875 13.15625 6.1875 Q 5.515625 13.8125 5.515625 26.8125 Q 5.515625 40.234375 12.765625 48.109375 Q 20.015625 56 32.328125 56 Q 43.359375 56 49.78125 48.890625 Q 56.203125 41.796875 56.203125 29.59375 zM 47.21875 32.234375 Q 47.125 39.59375 43.09375 43.984375 Q 39.0625 48.390625 32.421875 48.390625 Q 24.90625 48.390625 20.390625 44.140625 Q 15.875 39.890625 15.1875 32.171875 z" id="DejaVuSans-101"/>     </defs>     <g style="fill:#262626;" transform="translate(367.421572 367.888933)scale(0.156 -0.156)">      <use xlink:href="#DejaVuSans-116"/>      <use x="39.208984" xlink:href="#DejaVuSans-105"/>      <use x="66.992188" xlink:href="#DejaVuSans-109"/>      <use x="164.404297" xlink:href="#DejaVuSans-101"/>     </g>    </g>   </g>   <g id="matplotlib.axis_2">    <g id="ytick_1">     <g id="line2d_11">      <path clip-path="url(#p75512b1eba)" d="M 93.913043 309.488681 L 676.173913 309.488681 " style="fill:none;stroke:#ffffff;stroke-linecap:round;"/>     </g>     <g id="text_12">      <!-- 0.2 -->      <defs>       <path d="M 10.6875 12.40625 L 21 12.40625 L 21 0 L 10.6875 0 z" id="DejaVuSans-46"/>      </defs>      <g style="fill:#262626;" transform="translate(61.671575 314.921564)scale(0.143 -0.143)">       <use xlink:href="#DejaVuSans-48"/>       <use x="63.623047" xlink:href="#DejaVuSans-46"/>       <use x="95.410156" xlink:href="#DejaVuSans-50"/>      </g>     </g>    </g>    <g id="ytick_2">     <g id="line2d_12">      <path clip-path="url(#p75512b1eba)" d="M 93.913043 277.453039 L 676.173913 277.453039 " style="fill:none;stroke:#ffffff;stroke-linecap:round;"/>     </g>     <g id="text_13">      <!-- 0.4 -->      <g style="fill:#262626;" transform="translate(61.671575 282.885922)scale(0.143 -0.143)">       <use xlink:href="#DejaVuSans-48"/>       <use x="63.623047" xlink:href="#DejaVuSans-46"/>       <use x="95.410156" xlink:href="#DejaVuSans-52"/>      </g>     </g>    </g>    <g id="ytick_3">     <g id="line2d_13">      <path clip-path="url(#p75512b1eba)" d="M 93.913043 245.417397 L 676.173913 245.417397 " style="fill:none;stroke:#ffffff;stroke-linecap:round;"/>     </g>     <g id="text_14">      <!-- 0.6 -->      <defs>       <path d="M 33.015625 40.375 Q 26.375 40.375 22.484375 35.828125 Q 18.609375 31.296875 18.609375 23.390625 Q 18.609375 15.53125 22.484375 10.953125 Q 26.375 6.390625 33.015625 6.390625 Q 39.65625 6.390625 43.53125 10.953125 Q 47.40625 15.53125 47.40625 23.390625 Q 47.40625 31.296875 43.53125 35.828125 Q 39.65625 40.375 33.015625 40.375 zM 52.59375 71.296875 L 52.59375 62.3125 Q 48.875 64.0625 45.09375 64.984375 Q 41.3125 65.921875 37.59375 65.921875 Q 27.828125 65.921875 22.671875 59.328125 Q 17.53125 52.734375 16.796875 39.40625 Q 19.671875 43.65625 24.015625 45.921875 Q 28.375 48.1875 33.59375 48.1875 Q 44.578125 48.1875 50.953125 41.515625 Q 57.328125 34.859375 57.328125 23.390625 Q 57.328125 12.15625 50.6875 5.359375 Q 44.046875 -1.421875 33.015625 -1.421875 Q 20.359375 -1.421875 13.671875 8.265625 Q 6.984375 17.96875 6.984375 36.375 Q 6.984375 53.65625 15.1875 63.9375 Q 23.390625 74.21875 37.203125 74.21875 Q 40.921875 74.21875 44.703125 73.484375 Q 48.484375 72.75 52.59375 71.296875 z" id="DejaVuSans-54"/>      </defs>      <g style="fill:#262626;" transform="translate(61.671575 250.850279)scale(0.143 -0.143)">       <use xlink:href="#DejaVuSans-48"/>       <use x="63.623047" xlink:href="#DejaVuSans-46"/>       <use x="95.410156" xlink:href="#DejaVuSans-54"/>      </g>     </g>    </g>    <g id="ytick_4">     <g id="line2d_14">      <path clip-path="url(#p75512b1eba)" d="M 93.913043 213.381754 L 676.173913 213.381754 " style="fill:none;stroke:#ffffff;stroke-linecap:round;"/>     </g>     <g id="text_15">      <!-- 0.8 -->      <defs>       <path d="M 31.78125 34.625 Q 24.75 34.625 20.71875 30.859375 Q 16.703125 27.09375 16.703125 20.515625 Q 16.703125 13.921875 20.71875 10.15625 Q 24.75 6.390625 31.78125 6.390625 Q 38.8125 6.390625 42.859375 10.171875 Q 46.921875 13.96875 46.921875 20.515625 Q 46.921875 27.09375 42.890625 30.859375 Q 38.875 34.625 31.78125 34.625 zM 21.921875 38.8125 Q 15.578125 40.375 12.03125 44.71875 Q 8.5 49.078125 8.5 55.328125 Q 8.5 64.0625 14.71875 69.140625 Q 20.953125 74.21875 31.78125 74.21875 Q 42.671875 74.21875 48.875 69.140625 Q 55.078125 64.0625 55.078125 55.328125 Q 55.078125 49.078125 51.53125 44.71875 Q 48 40.375 41.703125 38.8125 Q 48.828125 37.15625 52.796875 32.3125 Q 56.78125 27.484375 56.78125 20.515625 Q 56.78125 9.90625 50.3125 4.234375 Q 43.84375 -1.421875 31.78125 -1.421875 Q 19.734375 -1.421875 13.25 4.234375 Q 6.78125 9.90625 6.78125 20.515625 Q 6.78125 27.484375 10.78125 32.3125 Q 14.796875 37.15625 21.921875 38.8125 zM 18.3125 54.390625 Q 18.3125 48.734375 21.84375 45.5625 Q 25.390625 42.390625 31.78125 42.390625 Q 38.140625 42.390625 41.71875 45.5625 Q 45.3125 48.734375 45.3125 54.390625 Q 45.3125 60.0625 41.71875 63.234375 Q 38.140625 66.40625 31.78125 66.40625 Q 25.390625 66.40625 21.84375 63.234375 Q 18.3125 60.0625 18.3125 54.390625 z" id="DejaVuSans-56"/>      </defs>      <g style="fill:#262626;" transform="translate(61.671575 218.814637)scale(0.143 -0.143)">       <use xlink:href="#DejaVuSans-48"/>       <use x="63.623047" xlink:href="#DejaVuSans-46"/>       <use x="95.410156" xlink:href="#DejaVuSans-56"/>      </g>     </g>    </g>    <g id="ytick_5">     <g id="line2d_15">      <path clip-path="url(#p75512b1eba)" d="M 93.913043 181.346112 L 676.173913 181.346112 " style="fill:none;stroke:#ffffff;stroke-linecap:round;"/>     </g>     <g id="text_16">      <!-- 1.0 -->      <g style="fill:#262626;" transform="translate(61.671575 186.778995)scale(0.143 -0.143)">       <use xlink:href="#DejaVuSans-49"/>       <use x="63.623047" xlink:href="#DejaVuSans-46"/>       <use x="95.410156" xlink:href="#DejaVuSans-48"/>      </g>     </g>    </g>    <g id="ytick_6">     <g id="line2d_16">      <path clip-path="url(#p75512b1eba)" d="M 93.913043 149.310469 L 676.173913 149.310469 " style="fill:none;stroke:#ffffff;stroke-linecap:round;"/>     </g>     <g id="text_17">      <!-- 1.2 -->      <g style="fill:#262626;" transform="translate(61.671575 154.743352)scale(0.143 -0.143)">       <use xlink:href="#DejaVuSans-49"/>       <use x="63.623047" xlink:href="#DejaVuSans-46"/>       <use x="95.410156" xlink:href="#DejaVuSans-50"/>      </g>     </g>    </g>    <g id="ytick_7">     <g id="line2d_17">      <path clip-path="url(#p75512b1eba)" d="M 93.913043 117.274827 L 676.173913 117.274827 " style="fill:none;stroke:#ffffff;stroke-linecap:round;"/>     </g>     <g id="text_18">      <!-- 1.4 -->      <g style="fill:#262626;" transform="translate(61.671575 122.70771)scale(0.143 -0.143)">       <use xlink:href="#DejaVuSans-49"/>       <use x="63.623047" xlink:href="#DejaVuSans-46"/>       <use x="95.410156" xlink:href="#DejaVuSans-52"/>      </g>     </g>    </g>    <g id="ytick_8">     <g id="line2d_18">      <path clip-path="url(#p75512b1eba)" d="M 93.913043 85.239184 L 676.173913 85.239184 " style="fill:none;stroke:#ffffff;stroke-linecap:round;"/>     </g>     <g id="text_19">      <!-- 1.6 -->      <g style="fill:#262626;" transform="translate(61.671575 90.672067)scale(0.143 -0.143)">       <use xlink:href="#DejaVuSans-49"/>       <use x="63.623047" xlink:href="#DejaVuSans-46"/>       <use x="95.410156" xlink:href="#DejaVuSans-54"/>      </g>     </g>    </g>    <g id="ytick_9">     <g id="line2d_19">      <path clip-path="url(#p75512b1eba)" d="M 93.913043 53.203542 L 676.173913 53.203542 " style="fill:none;stroke:#ffffff;stroke-linecap:round;"/>     </g>     <g id="text_20">      <!-- 1.8 -->      <g style="fill:#262626;" transform="translate(61.671575 58.636425)scale(0.143 -0.143)">       <use xlink:href="#DejaVuSans-49"/>       <use x="63.623047" xlink:href="#DejaVuSans-46"/>       <use x="95.410156" xlink:href="#DejaVuSans-56"/>      </g>     </g>    </g>    <g id="text_21">     <!-- mutual information -->     <defs>      <path d="M 8.5 21.578125 L 8.5 54.6875 L 17.484375 54.6875 L 17.484375 21.921875 Q 17.484375 14.15625 20.5 10.265625 Q 23.53125 6.390625 29.59375 6.390625 Q 36.859375 6.390625 41.078125 11.03125 Q 45.3125 15.671875 45.3125 23.6875 L 45.3125 54.6875 L 54.296875 54.6875 L 54.296875 0 L 45.3125 0 L 45.3125 8.40625 Q 42.046875 3.421875 37.71875 1 Q 33.40625 -1.421875 27.6875 -1.421875 Q 18.265625 -1.421875 13.375 4.4375 Q 8.5 10.296875 8.5 21.578125 zM 31.109375 56 z" id="DejaVuSans-117"/>      <path d="M 34.28125 27.484375 Q 23.390625 27.484375 19.1875 25 Q 14.984375 22.515625 14.984375 16.5 Q 14.984375 11.71875 18.140625 8.90625 Q 21.296875 6.109375 26.703125 6.109375 Q 34.1875 6.109375 38.703125 11.40625 Q 43.21875 16.703125 43.21875 25.484375 L 43.21875 27.484375 zM 52.203125 31.203125 L 52.203125 0 L 43.21875 0 L 43.21875 8.296875 Q 40.140625 3.328125 35.546875 0.953125 Q 30.953125 -1.421875 24.3125 -1.421875 Q 15.921875 -1.421875 10.953125 3.296875 Q 6 8.015625 6 15.921875 Q 6 25.140625 12.171875 29.828125 Q 18.359375 34.515625 30.609375 34.515625 L 43.21875 34.515625 L 43.21875 35.40625 Q 43.21875 41.609375 39.140625 45 Q 35.0625 48.390625 27.6875 48.390625 Q 23 48.390625 18.546875 47.265625 Q 14.109375 46.140625 10.015625 43.890625 L 10.015625 52.203125 Q 14.9375 54.109375 19.578125 55.046875 Q 24.21875 56 28.609375 56 Q 40.484375 56 46.34375 49.84375 Q 52.203125 43.703125 52.203125 31.203125 z" id="DejaVuSans-97"/>      <path d="M 9.421875 75.984375 L 18.40625 75.984375 L 18.40625 0 L 9.421875 0 z" id="DejaVuSans-108"/>      <path id="DejaVuSans-32"/>      <path d="M 54.890625 33.015625 L 54.890625 0 L 45.90625 0 L 45.90625 32.71875 Q 45.90625 40.484375 42.875 44.328125 Q 39.84375 48.1875 33.796875 48.1875 Q 26.515625 48.1875 22.3125 43.546875 Q 18.109375 38.921875 18.109375 30.90625 L 18.109375 0 L 9.078125 0 L 9.078125 54.6875 L 18.109375 54.6875 L 18.109375 46.1875 Q 21.34375 51.125 25.703125 53.5625 Q 30.078125 56 35.796875 56 Q 45.21875 56 50.046875 50.171875 Q 54.890625 44.34375 54.890625 33.015625 z" id="DejaVuSans-110"/>      <path d="M 37.109375 75.984375 L 37.109375 68.5 L 28.515625 68.5 Q 23.6875 68.5 21.796875 66.546875 Q 19.921875 64.59375 19.921875 59.515625 L 19.921875 54.6875 L 34.71875 54.6875 L 34.71875 47.703125 L 19.921875 47.703125 L 19.921875 0 L 10.890625 0 L 10.890625 47.703125 L 2.296875 47.703125 L 2.296875 54.6875 L 10.890625 54.6875 L 10.890625 58.5 Q 10.890625 67.625 15.140625 71.796875 Q 19.390625 75.984375 28.609375 75.984375 z" id="DejaVuSans-102"/>      <path d="M 30.609375 48.390625 Q 23.390625 48.390625 19.1875 42.75 Q 14.984375 37.109375 14.984375 27.296875 Q 14.984375 17.484375 19.15625 11.84375 Q 23.34375 6.203125 30.609375 6.203125 Q 37.796875 6.203125 41.984375 11.859375 Q 46.1875 17.53125 46.1875 27.296875 Q 46.1875 37.015625 41.984375 42.703125 Q 37.796875 48.390625 30.609375 48.390625 zM 30.609375 56 Q 42.328125 56 49.015625 48.375 Q 55.71875 40.765625 55.71875 27.296875 Q 55.71875 13.875 49.015625 6.21875 Q 42.328125 -1.421875 30.609375 -1.421875 Q 18.84375 -1.421875 12.171875 6.21875 Q 5.515625 13.875 5.515625 27.296875 Q 5.515625 40.765625 12.171875 48.375 Q 18.84375 56 30.609375 56 z" id="DejaVuSans-111"/>      <path d="M 41.109375 46.296875 Q 39.59375 47.171875 37.8125 47.578125 Q 36.03125 48 33.890625 48 Q 26.265625 48 22.1875 43.046875 Q 18.109375 38.09375 18.109375 28.8125 L 18.109375 0 L 9.078125 0 L 9.078125 54.6875 L 18.109375 54.6875 L 18.109375 46.1875 Q 20.953125 51.171875 25.484375 53.578125 Q 30.03125 56 36.53125 56 Q 37.453125 56 38.578125 55.875 Q 39.703125 55.765625 41.0625 55.515625 z" id="DejaVuSans-114"/>     </defs>     <g style="fill:#262626;" transform="translate(54.427262 262.00705)rotate(-90)scale(0.156 -0.156)">      <use xlink:href="#DejaVuSans-109"/>      <use x="97.412109" xlink:href="#DejaVuSans-117"/>      <use x="160.791016" xlink:href="#DejaVuSans-116"/>      <use x="200" xlink:href="#DejaVuSans-117"/>      <use x="263.378906" xlink:href="#DejaVuSans-97"/>      <use x="324.658203" xlink:href="#DejaVuSans-108"/>      <use x="352.441406" xlink:href="#DejaVuSans-32"/>      <use x="384.228516" xlink:href="#DejaVuSans-105"/>      <use x="412.011719" xlink:href="#DejaVuSans-110"/>      <use x="475.390625" xlink:href="#DejaVuSans-102"/>      <use x="510.595703" xlink:href="#DejaVuSans-111"/>      <use x="571.777344" xlink:href="#DejaVuSans-114"/>      <use x="612.875" xlink:href="#DejaVuSans-109"/>      <use x="710.287109" xlink:href="#DejaVuSans-97"/>      <use x="771.566406" xlink:href="#DejaVuSans-116"/>      <use x="810.775391" xlink:href="#DejaVuSans-105"/>      <use x="838.558594" xlink:href="#DejaVuSans-111"/>      <use x="899.740234" xlink:href="#DejaVuSans-110"/>     </g>    </g>   </g>   <g id="LineCollection_1">    <path clip-path="url(#p75512b1eba)" d="M 109.31677 312.431586 L 109.31677 311.682309 " style="fill:none;stroke:#cd401a;stroke-linecap:round;stroke-width:1.5;"/>    <path clip-path="url(#p75512b1eba)" d="M 141.745669 297.720023 L 141.745669 295.962598 " style="fill:none;stroke:#cd401a;stroke-linecap:round;stroke-width:1.5;"/>    <path clip-path="url(#p75512b1eba)" d="M 174.174567 283.632853 L 174.174567 281.177402 " style="fill:none;stroke:#cd401a;stroke-linecap:round;stroke-width:1.5;"/>    <path clip-path="url(#p75512b1eba)" d="M 206.603465 270.587899 L 206.603465 267.013293 " style="fill:none;stroke:#cd401a;stroke-linecap:round;stroke-width:1.5;"/>    <path clip-path="url(#p75512b1eba)" d="M 239.032364 258.320819 L 239.032364 254.15442 " style="fill:none;stroke:#cd401a;stroke-linecap:round;stroke-width:1.5;"/>    <path clip-path="url(#p75512b1eba)" d="M 271.461262 246.297284 L 271.461262 240.787517 " style="fill:none;stroke:#cd401a;stroke-linecap:round;stroke-width:1.5;"/>    <path clip-path="url(#p75512b1eba)" d="M 303.89016 233.771853 L 303.89016 227.375268 " style="fill:none;stroke:#cd401a;stroke-linecap:round;stroke-width:1.5;"/>    <path clip-path="url(#p75512b1eba)" d="M 336.319059 222.478802 L 336.319059 216.079857 " style="fill:none;stroke:#cd401a;stroke-linecap:round;stroke-width:1.5;"/>    <path clip-path="url(#p75512b1eba)" d="M 368.747957 209.334743 L 368.747957 201.01265 " style="fill:none;stroke:#cd401a;stroke-linecap:round;stroke-width:1.5;"/>    <path clip-path="url(#p75512b1eba)" d="M 401.176855 198.28775 L 401.176855 189.851764 " style="fill:none;stroke:#cd401a;stroke-linecap:round;stroke-width:1.5;"/>    <path clip-path="url(#p75512b1eba)" d="M 433.605754 185.459278 L 433.605754 176.622194 " style="fill:none;stroke:#cd401a;stroke-linecap:round;stroke-width:1.5;"/>    <path clip-path="url(#p75512b1eba)" d="M 466.034652 172.27458 L 466.034652 160.897985 " style="fill:none;stroke:#cd401a;stroke-linecap:round;stroke-width:1.5;"/>    <path clip-path="url(#p75512b1eba)" d="M 498.46355 159.819536 L 498.46355 146.379513 " style="fill:none;stroke:#cd401a;stroke-linecap:round;stroke-width:1.5;"/>    <path clip-path="url(#p75512b1eba)" d="M 530.892449 148.293841 L 530.892449 136.091345 " style="fill:none;stroke:#cd401a;stroke-linecap:round;stroke-width:1.5;"/>    <path clip-path="url(#p75512b1eba)" d="M 563.321347 135.2461 L 563.321347 121.325407 " style="fill:none;stroke:#cd401a;stroke-linecap:round;stroke-width:1.5;"/>    <path clip-path="url(#p75512b1eba)" d="M 595.750245 121.742846 L 595.750245 108.636576 " style="fill:none;stroke:#cd401a;stroke-linecap:round;stroke-width:1.5;"/>    <path clip-path="url(#p75512b1eba)" d="M 628.179144 110.61253 L 628.179144 95.375818 " style="fill:none;stroke:#cd401a;stroke-linecap:round;stroke-width:1.5;"/>    <path clip-path="url(#p75512b1eba)" d="M 660.608042 96.684761 L 660.608042 82.077706 " style="fill:none;stroke:#cd401a;stroke-linecap:round;stroke-width:1.5;"/>    <path clip-path="url(#p75512b1eba)" d="M 693.03694 86.799728 L 693.03694 71.59085 " style="fill:none;stroke:#cd401a;stroke-linecap:round;stroke-width:1.5;"/>    <path clip-path="url(#p75512b1eba)" d="M 725.465839 75.996006 L 725.465839 57.96996 " style="fill:none;stroke:#cd401a;stroke-linecap:round;stroke-width:1.5;"/>   </g>   <g id="line2d_20">    <path clip-path="url(#p75512b1eba)" d="M 109.31677 312.054104 L 141.745669 296.863631 L 174.174567 282.428678 L 206.603465 268.943167 L 239.032364 256.220928 L 271.461262 243.418657 L 303.89016 230.667394 L 336.319059 219.263015 L 368.747957 205.729884 L 401.176855 193.783683 L 433.605754 180.895142 L 466.034652 166.562296 L 498.46355 153.712238 L 530.892449 141.953102 L 563.321347 128.591365 L 595.750245 115.900467 L 628.179144 103.208819 L 660.608042 89.846829 L 693.03694 78.808606 L 725.465839 67.60615 " style="fill:none;stroke:#cd401a;stroke-linecap:round;stroke-width:3;"/>   </g>   <g id="line2d_21">    <path clip-path="url(#p75512b1eba)" d="M 98.053565 315.803953 L 100.065835 315.393153 L 103.056057 314.688965 L 107.499509 313.691439 L 114.102454 312.165979 L 123.914392 309.995445 L 138.494876 306.652279 L 160.161391 301.785276 L 192.35771 294.457297 L 240.201256 283.614513 L 311.296491 267.49989 L 416.943606 243.594251 L 573.934614 208.088822 L 752.304348 167.682058 " style="fill:none;stroke:#ffa630;stroke-linecap:round;stroke-width:3;"/>   </g>   <g id="line2d_22"/>   <g id="line2d_23"/>   <g id="line2d_24"/>   <g id="line2d_25"/>   <g id="patch_3">    <path d="M 93.913043 328.695652 L 93.913043 45.078261 " style="fill:none;stroke:#ffffff;stroke-linecap:square;stroke-linejoin:miter;stroke-width:1.25;"/>   </g>   <g id="patch_4">    <path d="M 676.173913 328.695652 L 676.173913 45.078261 " style="fill:none;stroke:#ffffff;stroke-linecap:square;stroke-linejoin:miter;stroke-width:1.25;"/>   </g>   <g id="patch_5">    <path d="M 93.913043 328.695652 L 676.173913 328.695652 " style="fill:none;stroke:#ffffff;stroke-linecap:square;stroke-linejoin:miter;stroke-width:1.25;"/>   </g>   <g id="patch_6">    <path d="M 93.913043 45.078261 L 676.173913 45.078261 " style="fill:none;stroke:#ffffff;stroke-linecap:square;stroke-linejoin:miter;stroke-width:1.25;"/>   </g>   <g id="legend_1">    <g id="patch_7">     <path d="M 103.923043 119.487417 L 236.133247 119.487417 Q 238.993247 119.487417 238.993247 116.627417 L 238.993247 55.088261 Q 238.993247 52.228261 236.133247 52.228261 L 103.923043 52.228261 Q 101.063043 52.228261 101.063043 55.088261 L 101.063043 116.627417 Q 101.063043 119.487417 103.923043 119.487417 z" style="fill:#eaeaf2;opacity:0.8;stroke:#cccccc;stroke-linejoin:miter;"/>    </g>    <g id="line2d_26">     <path d="M 106.783043 63.809026 L 135.383043 63.809026 " style="fill:none;"/>    </g>    <g id="line2d_27"/>    <g id="text_22">     <!-- estimate -->     <defs>      <path d="M 44.28125 53.078125 L 44.28125 44.578125 Q 40.484375 46.53125 36.375 47.5 Q 32.28125 48.484375 27.875 48.484375 Q 21.1875 48.484375 17.84375 46.4375 Q 14.5 44.390625 14.5 40.28125 Q 14.5 37.15625 16.890625 35.375 Q 19.28125 33.59375 26.515625 31.984375 L 29.59375 31.296875 Q 39.15625 29.25 43.1875 25.515625 Q 47.21875 21.78125 47.21875 15.09375 Q 47.21875 7.46875 41.1875 3.015625 Q 35.15625 -1.421875 24.609375 -1.421875 Q 20.21875 -1.421875 15.453125 -0.5625 Q 10.6875 0.296875 5.421875 2 L 5.421875 11.28125 Q 10.40625 8.6875 15.234375 7.390625 Q 20.0625 6.109375 24.8125 6.109375 Q 31.15625 6.109375 34.5625 8.28125 Q 37.984375 10.453125 37.984375 14.40625 Q 37.984375 18.0625 35.515625 20.015625 Q 33.0625 21.96875 24.703125 23.78125 L 21.578125 24.515625 Q 13.234375 26.265625 9.515625 29.90625 Q 5.8125 33.546875 5.8125 39.890625 Q 5.8125 47.609375 11.28125 51.796875 Q 16.75 56 26.8125 56 Q 31.78125 56 36.171875 55.265625 Q 40.578125 54.546875 44.28125 53.078125 z" id="DejaVuSans-115"/>     </defs>     <g style="fill:#262626;" transform="translate(146.823043 68.814026)scale(0.143 -0.143)">      <use xlink:href="#DejaVuSans-101"/>      <use x="61.523438" xlink:href="#DejaVuSans-115"/>      <use x="113.623047" xlink:href="#DejaVuSans-116"/>      <use x="152.832031" xlink:href="#DejaVuSans-105"/>      <use x="180.615234" xlink:href="#DejaVuSans-109"/>      <use x="278.027344" xlink:href="#DejaVuSans-97"/>      <use x="339.306641" xlink:href="#DejaVuSans-116"/>      <use x="378.515625" xlink:href="#DejaVuSans-101"/>     </g>    </g>    <g id="line2d_28">     <path d="M 106.783043 84.798745 L 135.383043 84.798745 " style="fill:none;stroke:#cd401a;stroke-linecap:round;stroke-width:1.5;"/>    </g>    <g id="line2d_29"/>    <g id="text_23">     <!-- Monte Carlo -->     <defs>      <path d="M 9.8125 72.90625 L 24.515625 72.90625 L 43.109375 23.296875 L 61.8125 72.90625 L 76.515625 72.90625 L 76.515625 0 L 66.890625 0 L 66.890625 64.015625 L 48.09375 14.015625 L 38.1875 14.015625 L 19.390625 64.015625 L 19.390625 0 L 9.8125 0 z" id="DejaVuSans-77"/>      <path d="M 64.40625 67.28125 L 64.40625 56.890625 Q 59.421875 61.53125 53.78125 63.8125 Q 48.140625 66.109375 41.796875 66.109375 Q 29.296875 66.109375 22.65625 58.46875 Q 16.015625 50.828125 16.015625 36.375 Q 16.015625 21.96875 22.65625 14.328125 Q 29.296875 6.6875 41.796875 6.6875 Q 48.140625 6.6875 53.78125 8.984375 Q 59.421875 11.28125 64.40625 15.921875 L 64.40625 5.609375 Q 59.234375 2.09375 53.4375 0.328125 Q 47.65625 -1.421875 41.21875 -1.421875 Q 24.65625 -1.421875 15.125 8.703125 Q 5.609375 18.84375 5.609375 36.375 Q 5.609375 53.953125 15.125 64.078125 Q 24.65625 74.21875 41.21875 74.21875 Q 47.75 74.21875 53.53125 72.484375 Q 59.328125 70.75 64.40625 67.28125 z" id="DejaVuSans-67"/>     </defs>     <g style="fill:#262626;" transform="translate(146.823043 89.803745)scale(0.143 -0.143)">      <use xlink:href="#DejaVuSans-77"/>      <use x="86.279297" xlink:href="#DejaVuSans-111"/>      <use x="147.460938" xlink:href="#DejaVuSans-110"/>      <use x="210.839844" xlink:href="#DejaVuSans-116"/>      <use x="250.048828" xlink:href="#DejaVuSans-101"/>      <use x="311.572266" xlink:href="#DejaVuSans-32"/>      <use x="343.359375" xlink:href="#DejaVuSans-67"/>      <use x="413.183594" xlink:href="#DejaVuSans-97"/>      <use x="474.462891" xlink:href="#DejaVuSans-114"/>      <use x="515.576172" xlink:href="#DejaVuSans-108"/>      <use x="543.359375" xlink:href="#DejaVuSans-111"/>     </g>    </g>    <g id="line2d_30">     <path d="M 106.783043 105.788464 L 135.383043 105.788464 " style="fill:none;stroke:#ffa630;stroke-linecap:round;stroke-width:1.5;"/>    </g>    <g id="line2d_31"/>    <g id="text_24">     <!-- Analytical -->     <defs>      <path d="M 34.1875 63.1875 L 20.796875 26.90625 L 47.609375 26.90625 zM 28.609375 72.90625 L 39.796875 72.90625 L 67.578125 0 L 57.328125 0 L 50.6875 18.703125 L 17.828125 18.703125 L 11.1875 0 L 0.78125 0 z" id="DejaVuSans-65"/>      <path d="M 32.171875 -5.078125 Q 28.375 -14.84375 24.75 -17.8125 Q 21.140625 -20.796875 15.09375 -20.796875 L 7.90625 -20.796875 L 7.90625 -13.28125 L 13.1875 -13.28125 Q 16.890625 -13.28125 18.9375 -11.515625 Q 21 -9.765625 23.484375 -3.21875 L 25.09375 0.875 L 2.984375 54.6875 L 12.5 54.6875 L 29.59375 11.921875 L 46.6875 54.6875 L 56.203125 54.6875 z" id="DejaVuSans-121"/>      <path d="M 48.78125 52.59375 L 48.78125 44.1875 Q 44.96875 46.296875 41.140625 47.34375 Q 37.3125 48.390625 33.40625 48.390625 Q 24.65625 48.390625 19.8125 42.84375 Q 14.984375 37.3125 14.984375 27.296875 Q 14.984375 17.28125 19.8125 11.734375 Q 24.65625 6.203125 33.40625 6.203125 Q 37.3125 6.203125 41.140625 7.25 Q 44.96875 8.296875 48.78125 10.40625 L 48.78125 2.09375 Q 45.015625 0.34375 40.984375 -0.53125 Q 36.96875 -1.421875 32.421875 -1.421875 Q 20.0625 -1.421875 12.78125 6.34375 Q 5.515625 14.109375 5.515625 27.296875 Q 5.515625 40.671875 12.859375 48.328125 Q 20.21875 56 33.015625 56 Q 37.15625 56 41.109375 55.140625 Q 45.0625 54.296875 48.78125 52.59375 z" id="DejaVuSans-99"/>     </defs>     <g style="fill:#262626;" transform="translate(146.823043 110.793464)scale(0.143 -0.143)">      <use xlink:href="#DejaVuSans-65"/>      <use x="68.408203" xlink:href="#DejaVuSans-110"/>      <use x="131.787109" xlink:href="#DejaVuSans-97"/>      <use x="193.066406" xlink:href="#DejaVuSans-108"/>      <use x="220.849609" xlink:href="#DejaVuSans-121"/>      <use x="280.029297" xlink:href="#DejaVuSans-116"/>      <use x="319.238281" xlink:href="#DejaVuSans-105"/>      <use x="347.021484" xlink:href="#DejaVuSans-99"/>      <use x="402.001953" xlink:href="#DejaVuSans-97"/>      <use x="463.28125" xlink:href="#DejaVuSans-108"/>     </g>    </g>   </g>  </g> </g> <defs>  <clipPath id="p75512b1eba">   <rect height="283.617391" width="582.26087" x="93.913043" y="45.078261"/>  </clipPath> </defs></svg>